<svg xmlns="http://www.w3.org/2000/svg" xmlns:xlink="http://www.w3.org/1999/xlink" width="260" height="147" viewBox="0 0 260 147">
  <defs>
    <clipPath id="clip-path">
      <rect id="Rectangle_2408" data-name="Rectangle 2408" width="260" height="147" rx="8" transform="translate(1056 2557)" fill="#e30b1c"/>
    </clipPath>
  </defs>
  <g id="Mask_Group_132" data-name="Mask Group 132" transform="translate(-1056 -2557)" clip-path="url(#clip-path)">
    <g id="Feed-rafiki" transform="translate(882.28 2325.531)">
      <g id="freepik--Character--inject-64" transform="translate(173.72 231.665)">
        <g id="freepik--group--inject-64">
          <path id="Path_28182" data-name="Path 28182" d="M180.82,354.721l1.154-8.4,19.965-1.143-1.166,8.386Z" transform="translate(-172.457 -211.475)" fill="#b97964"/>
          <path id="Path_28183" data-name="Path 28183" d="M199.421,353.566l1.154-8.386-11.4.648-.754,8.375Z" transform="translate(-171.105 -211.475)" opacity="0.2" style="mix-blend-mode: normal;isolation: isolate"/>
          <path id="Path_28184" data-name="Path 28184" d="M182.457,347.086h0l-.436-.436a7.172,7.172,0,0,0,3-1.519,1.684,1.684,0,0,0,0-1.178,1,1,0,0,0-.73-.789,3.038,3.038,0,0,0-1.932.86,3.534,3.534,0,0,0,.318-2.356.789.789,0,0,0-.612-.412A1.036,1.036,0,0,0,181,341.6a2.356,2.356,0,0,0-.259,1.625,10.67,10.67,0,0,0,.518,2.179v.071c0,.071,0,0,.059,0s.082.342.118.353.506.766.506.766Zm1.755-3.616c.118,0,.259.059.318.342v.094a.589.589,0,0,1-.141.436c-.424.554-1.755.754-2.556.813a.181.181,0,0,1,.094-.177,3.97,3.97,0,0,1,2.285-1.508Zm-2.862-1.625a.754.754,0,0,1,.695-.212.377.377,0,0,1,.294.2c.271.53-.294,2-.813,3.039C181.055,343.4,181.055,342.28,181.35,341.844Z" transform="translate(-172.48 -212.179)" fill="#eceff1"/>
          <path id="Path_28185" data-name="Path 28185" d="M183.767,347.307l.966,9.423a.613.613,0,0,1-.506.683h0l-7.444,1.178a1.5,1.5,0,0,1-1.637-1.319c-.283-3.31-.247-4.9-.636-9.058a76.648,76.648,0,0,1-.789-11.131c.2-3.534,3.71-3.251,3.934-1.731a23.334,23.334,0,0,0,5.5,10.483A2.356,2.356,0,0,1,183.767,347.307Z" transform="translate(-173.72 -213.413)" fill="#263238"/>
          <path id="Path_28186" data-name="Path 28186" d="M332.936,269.32s-5.171-.094-5.348.813.153,8.469.836,9.541a16.371,16.371,0,0,0,2.58,2.591l-3.8,11.26,6.372,3.239,2.815-12.285s3.168-3.086,2.25-7.067S332.936,269.32,332.936,269.32Z" transform="translate(-146.421 -224.968)" fill="#b97964"/>
          <path id="Path_28187" data-name="Path 28187" d="M332.936,269.32s-5.171-.094-5.348.813.153,8.469.836,9.541a16.371,16.371,0,0,0,2.58,2.591l-3.8,11.26,6.372,3.239,2.815-12.285s3.168-3.086,2.25-7.067S332.936,269.32,332.936,269.32Z" transform="translate(-146.421 -224.968)" opacity="0.2" style="mix-blend-mode: normal;isolation: isolate"/>
          <path id="Path_28188" data-name="Path 28188" d="M350.83,273.82c-5.171,2.214-10.766,19.529-13.086,21.708s-1.4-5.43-1.4-5.43l-8.9-2.415s-3.534,10.259,0,18.846,14.346,5.171,22.379-5.642S350.83,273.82,350.83,273.82Z" transform="translate(-146.658 -224.167)" fill="#eceff1"/>
          <path id="Path_28189" data-name="Path 28189" d="M327.439,306.565a7.7,7.7,0,0,0,3.392,4.04c4.888,2.638,12.78-1.307,19.023-9.682a19.6,19.6,0,0,0,3.534-8.822c1.39-9.129-2.591-18.28-2.591-18.28-5.171,2.214-10.766,19.529-13.1,21.708s-1.39-5.43-1.39-5.43l-8.9-2.415S323.894,297.943,327.439,306.565Z" transform="translate(-146.66 -224.167)" fill="#fff" opacity="0.2" style="mix-blend-mode: normal;isolation: isolate"/>
          <path id="Path_28190" data-name="Path 28190" d="M330.08,308.335c4.888,2.638,12.78-1.307,19.023-9.682a19.6,19.6,0,0,0,3.534-8.822c-.966-2.026-1.708-3.251-1.708-3.251S340.587,305.414,330.08,308.335Z" transform="translate(-145.909 -221.898)" opacity="0.2" style="mix-blend-mode: normal;isolation: isolate"/>
          <path id="Path_28191" data-name="Path 28191" d="M325.66,335.556a65.537,65.537,0,0,0,15.195-23.8c5.006-14.323,10.012-37.692,10.012-37.692s23.981-5.265,47.174,2.285-6.349,69.942-27.68,76.915Z" transform="translate(-146.695 -224.442)" fill="#eceff1"/>
          <path id="Path_28192" data-name="Path 28192" d="M341.214,277.83a.789.789,0,0,1-.872.825l-8.787-.683a1.025,1.025,0,0,1-.931-.954L330,259.5a.883.883,0,0,1,.872-.942l8.787.683a1.178,1.178,0,0,1,.919,1.084Z" transform="translate(-145.923 -226.881)" fill="#263238"/>
          <path id="Path_28193" data-name="Path 28193" d="M339.623,260.132l.636,17.668a.683.683,0,0,1-.766.777L332.038,278c-.495,0-1.39-.389-1.413-.883L330,259.39c0-.506.872-.836,1.366-.789l7.456.577a.907.907,0,0,1,.8.954Z" transform="translate(-145.923 -226.875)" fill="#fff" opacity="0.5"/>
          <path id="Path_28194" data-name="Path 28194" d="M352.625,288.148l-6.525-6.679s-1.084-10.471-1.614-11.59-9.034-.695-9.953-.766-.754,10.377.141,11.472,4.358,1.979,4.358,1.979l6.985,9.529Z" transform="translate(-145.226 -225.008)" fill="#b97964"/>
          <path id="Path_28195" data-name="Path 28195" d="M349.51,297.548s6.761,16.078,18.1,16.773,28.481-13.852,30.625-24.288-13.322-.8-13.322-.8-19.859,11.508-20.247,11.543S349.51,297.548,349.51,297.548Z" transform="translate(-142.453 -222.147)" opacity="0.2" style="mix-blend-mode: normal;isolation: isolate"/>
          <path id="Path_28196" data-name="Path 28196" d="M395.5,277.89c-4.782-.2-19.882,17.409-26.49,19.505s-20.306-15.124-20.306-15.124l-7.067,5.948s10.6,16.667,21.955,20.4,31.2-9.293,34.936-15.124S401.334,278.138,395.5,277.89Z" transform="translate(-143.853 -223.443)" fill="#eceff1"/>
          <path id="Path_28197" data-name="Path 28197" d="M395.5,277.89c-4.782-.2-19.882,17.409-26.49,19.505s-20.306-15.124-20.306-15.124l-7.067,5.948s10.6,16.667,21.955,20.4,31.2-9.293,34.936-15.124S401.334,278.138,395.5,277.89Z" transform="translate(-143.853 -223.443)" fill="#fff" opacity="0.2" style="mix-blend-mode: normal;isolation: isolate"/>
          <path id="Path_28198" data-name="Path 28198" d="M362.38,270.987s10.789-3.793,20.672-1.178a2.709,2.709,0,0,1,.636,3.074,33.31,33.31,0,0,0-21.308,2.356Z" transform="translate(-140.164 -225.044)"/>
          <path id="Path_28199" data-name="Path 28199" d="M362.261,274.4c0,2.98-1.873,5.395-4.181,5.395s-4.17-2.415-4.17-5.395,1.873-5.406,4.17-5.406S362.261,271.416,362.261,274.4Z" transform="translate(-141.67 -225.026)" fill="#263238"/>
          <path id="Path_28200" data-name="Path 28200" d="M362.261,274.4c0,2.98-1.873,5.395-4.181,5.395s-4.17-2.415-4.17-5.395,1.873-5.406,4.17-5.406S362.261,271.416,362.261,274.4Z" transform="translate(-141.67 -225.026)" fill="#fff" opacity="0.2" style="mix-blend-mode: normal;isolation: isolate"/>
          <path id="Path_28201" data-name="Path 28201" d="M365.6,274.615c0,3.781-2.356,6.855-5.312,6.855s-5.3-3.074-5.3-6.855,2.356-6.855,5.3-6.855S365.6,270.822,365.6,274.615Z" transform="translate(-141.478 -225.245)" fill="#263238"/>
          <path id="Path_28202" data-name="Path 28202" d="M364.006,274.172c0,2.167-1.366,3.922-3.039,3.922s-3.027-1.755-3.027-3.922,1.355-3.922,3.027-3.922S364.006,272.005,364.006,274.172Z" transform="translate(-140.953 -224.802)" opacity="0.5" style="mix-blend-mode: normal;isolation: isolate"/>
          <path id="Path_28203" data-name="Path 28203" d="M380.349,255.51c-1.272,6.561-2.521,18.563,2.073,22.921,0,0-5.324,8.021-14.888,6.431-7.267-1.178-2.415-7.786-2.415-7.786,3.286-1.378,4.04-5.772,2.756-10.86Z" transform="translate(-139.959 -227.424)" fill="#b97964"/>
          <path id="Path_28204" data-name="Path 28204" d="M374.6,259.22l-7.373,6.337a20.756,20.756,0,0,1,.636,3.616c2.792-.412,6.608-3.534,6.9-6.408A9.7,9.7,0,0,0,374.6,259.22Z" transform="translate(-139.301 -226.764)" opacity="0.2" style="mix-blend-mode: normal;isolation: isolate"/>
          <path id="Path_28205" data-name="Path 28205" d="M365.943,241.224c3.593,2.532,1.849,6.678-6.49,13.063-3.251-4.393-3.651-12.8-.954-14.876S362.81,239.092,365.943,241.224Z" transform="translate(-141.171 -230.452)" fill="#263238"/>
          <path id="Path_28206" data-name="Path 28206" d="M381.558,248.778c-.412,6.525-.459,11.084-2.238,14.841a13.806,13.806,0,0,1-2.686,3.8c-6.749,6.832-17.668,2.744-19.8-6.113-.071-.271-.13-.565-.177-.86-1.614-8.021-.188-20.412,8.245-23.8a12.132,12.132,0,0,1,16.69,12.132Z" transform="translate(-141.285 -230.94)" fill="#b97964"/>
          <path id="Path_28207" data-name="Path 28207" d="M366.718,249.048c0,.73-.389,1.307-.86,1.307s-.848-.577-.848-1.307.377-1.3.848-1.307S366.671,248.341,366.718,249.048Z" transform="translate(-139.696 -228.806)" fill="#263238"/>
          <path id="Path_28208" data-name="Path 28208" d="M359.738,249.047c0,.719-.389,1.307-.86,1.307s-.848-.577-.848-1.307.389-1.307.86-1.307S359.75,248.329,359.738,249.047Z" transform="translate(-140.937 -228.806)" fill="#263238"/>
          <path id="Path_28209" data-name="Path 28209" d="M362.283,249.14a26.346,26.346,0,0,1-3.463,6.184,4.182,4.182,0,0,0,3.451.648Z" transform="translate(-140.797 -228.557)" fill="#a24e3f"/>
          <path id="Path_28210" data-name="Path 28210" d="M368.886,247.016a.356.356,0,0,0,.365-.6,4.205,4.205,0,0,0-3.451-1.755.424.424,0,0,0-.4.424h0a.436.436,0,0,0,.459.389h0a3.357,3.357,0,0,1,2.709,1.413.436.436,0,0,0,.318.13Z" transform="translate(-139.627 -229.354)" fill="#263238"/>
          <path id="Path_28211" data-name="Path 28211" d="M356.377,246.954a.424.424,0,0,0,.389-.247,3.392,3.392,0,0,1,2.356-1.908.448.448,0,0,0,.377-.483.436.436,0,0,0-.471-.365,4.217,4.217,0,0,0-3.051,2.356.424.424,0,0,0,.188.565h0Z" transform="translate(-141.31 -229.48)" fill="#263238"/>
          <path id="Path_28212" data-name="Path 28212" d="M375.126,240.32c-4.146,1.425-3.651,5.889,2.568,14.358,4.358-3.3,7.067-11.272,5.088-14S378.754,239.095,375.126,240.32Z" transform="translate(-138.375 -230.361)" fill="#263238"/>
          <path id="Path_28213" data-name="Path 28213" d="M382.562,253.6a8.468,8.468,0,0,1-4.028,5.053c-2.6,1.4-4.558-.766-4.382-3.533.153-2.521,1.708-6.3,4.582-6.549a3.769,3.769,0,0,1,3.828,5.029Z" transform="translate(-138.072 -228.66)" fill="#b97964"/>
          <path id="Path_28214" data-name="Path 28214" d="M368.269,256.29a6.2,6.2,0,0,1-5.889,2.662" transform="translate(-140.164 -227.285)" fill="none" stroke="#263238" stroke-linecap="round" stroke-linejoin="round" stroke-width="0.526"/>
          <path id="Path_28215" data-name="Path 28215" d="M377.843,244.627s.612-4.806-5.512-5.889-9.6,5.218-9.6,5.218a5.3,5.3,0,0,1,.612-4.311,8.881,8.881,0,0,0-3.416,4.935s-1-1.178-.577-4.57l-2.179,3.64s-1.967-5.889,6.172-10.412,26.62,1.4,20.978,9.011Z" transform="translate(-141.127 -231.665)" fill="#263238"/>
          <path id="Path_28216" data-name="Path 28216" d="M375.93,275.167s5.96-2.839,4.711-5.477c0,0,1.4,0,1.861,2.038s-1.084,4.947-5.124,6.855Z" transform="translate(-137.754 -224.902)" fill="#263238"/>
          <ellipse id="Ellipse_162" data-name="Ellipse 162" cx="5.3" cy="6.855" rx="5.3" ry="6.855" transform="translate(229.849 46.826)" fill="#263238"/>
          <path id="Path_28217" data-name="Path 28217" d="M379.683,278.056c0,2.98-1.873,5.395-4.181,5.395s-4.181-2.415-4.181-5.395,1.873-5.406,4.181-5.406S379.683,275.065,379.683,278.056Z" transform="translate(-138.574 -224.375)" fill="#263238"/>
          <path id="Path_28218" data-name="Path 28218" d="M379.683,278.056c0,2.98-1.873,5.395-4.181,5.395s-4.181-2.415-4.181-5.395,1.873-5.406,4.181-5.406S379.683,275.065,379.683,278.056Z" transform="translate(-138.574 -224.375)" fill="#fff" opacity="0.2" style="mix-blend-mode: normal;isolation: isolate"/>
          <path id="Path_28219" data-name="Path 28219" d="M351.1,323.074l-6.926,5.088s-43.11-60.766-54.688-60.071c-17.491.989-49.235,95.678-49.235,95.678l17.3-1.8s28.811-58.2,31.932-53.817c8.6,12.085,28.269,50.307,28.269,50.307l31.143-4.24Z" transform="translate(-161.886 -225.187)" fill="#263238"/>
          <path id="Path_28220" data-name="Path 28220" d="M351.1,323.086l-1.178,16.855v.071l-.978,14.134-31.143,4.24-.377-.73c-2.756-5.312-20.024-38.481-27.939-49.588-3.121-4.37-31.932,53.829-31.932,53.829l-17.3,1.8s3.015-9,7.7-21.473c10.507-28,29.447-73.522,41.532-74.206,11.578-.66,54.688,60.071,54.688,60.071Z" transform="translate(-161.886 -225.2)" fill="#fff" opacity="0.2" style="mix-blend-mode: normal;isolation: isolate"/>
          <path id="Path_28221" data-name="Path 28221" d="M350.039,335.019l-.118.059c-1.378.848-14.888,8.987-32.5,17.668-2.756-5.312-20.024-38.481-27.939-49.588-3.121-4.37-31.932,53.828-31.932,53.828l-17.3,1.8s3.015-9,7.7-21.473l15.56-3.062s21.425-43.357,28.2-38.045c6.137,4.818,26.278,36.926,26.278,36.926l31.944,1.849Z" transform="translate(-161.886 -220.265)" opacity="0.3" style="mix-blend-mode: normal;isolation: isolate"/>
          <path id="Path_28222" data-name="Path 28222" d="M374.128,362.956c-22.921,0-180.508-1.708-180.508-1.708V349.1l162.157-18.516,3.616-15.819,47,21.838S397.061,362.956,374.128,362.956Z" transform="translate(-170.18 -216.884)" fill="#263238"/>
          <path id="Path_28223" data-name="Path 28223" d="M374.128,362.956c-22.921,0-180.508-1.708-180.508-1.708V349.1l162.157-18.516,3.616-15.819,47,21.838S397.061,362.956,374.128,362.956Z" transform="translate(-170.18 -216.884)" fill="#fff" opacity="0.2" style="mix-blend-mode: normal;isolation: isolate"/>
          <path id="Path_28224" data-name="Path 28224" d="M192.563,359.537,192.08,341.8l8.009-1.178.141,19.47Z" transform="translate(-170.454 -212.286)" fill="#263238"/>
        </g>
      </g>
    </g>
  </g>
</svg>
