<svg xmlns="http://www.w3.org/2000/svg" xmlns:xlink="http://www.w3.org/1999/xlink" width="133" height="145" viewBox="0 0 133 145">
  <defs>
    <clipPath id="clip-path">
      <rect id="Rectangle_2409" data-name="Rectangle 2409" width="133" height="145" rx="8" transform="translate(134 2559)" fill="#e30b1c"/>
    </clipPath>
  </defs>
  <g id="Mask_Group_133" data-name="Mask Group 133" transform="translate(-134 -2559)" clip-path="url(#clip-path)">
    <g id="freepik--Character--inject-42" transform="translate(-163.792 2474.211)">
      <path id="Path_28225" data-name="Path 28225" d="M312.55,432c2.37.44,67.07-8.89,69.31-10.81.86-.72.05-10.23-1.26-21.69v-.36c-.27-2.36-8.54-41.48-8.54-41.48l-43.3,6.11,10,40.93.11.7s-23.17,14.65-25.4,17S310.18,431.58,312.55,432Z" fill="#f7a9a0"/>
      <path id="Path_28226" data-name="Path 28226" d="M381.86,421.19c-2.24,1.93-66.94,11.26-69.31,10.82s-1.32-7.22.91-9.58,25.41-17,25.41-17l-.13-.7L337.6,400l41.92-6.34c.33,1.67,1,5.12,1,5.47a.828.828,0,0,0,.05.35C381.91,411,382.72,420.48,381.86,421.19Z" fill="#fff"/>
      <path id="Path_28227" data-name="Path 28227" d="M312.54,432c1.22.22,18.82-2.13,36-4.73,3.45-.52,6.88-1,10.15-1.57,12.23-1.94,22.31-3.78,23.17-4.52s.08-9.95-1.2-21.2v-.48a2.1,2.1,0,0,1,0-.36h-.05l-41.76,5.55.11.71s-23.18,14.65-25.41,17S310.17,431.58,312.54,432Z" fill="#a6a6a6"/>
      <path id="Path_28228" data-name="Path 28228" d="M312.92,429.39c10.87-1.84,54.88-8.23,65.76-9.23.09,0,.1.06,0,.07-10.73,2.06-54.79,8.1-65.75,9.34C312.71,429.6,312.69,429.43,312.92,429.39Z" fill="#263238"/>
      <path id="Path_28229" data-name="Path 28229" d="M334.12,405.5c4.17-1.42,9.52-1.52,13.24,1.06.14.1,0,.31-.15.28a60.77,60.77,0,0,0-13-.8.28.28,0,0,1-.09-.54Z" fill="#263238"/>
      <path id="Path_28230" data-name="Path 28230" d="M331.29,407.81c4.17-1.42,9.52-1.52,13.24,1.07.14.1,0,.3-.15.28a60.779,60.779,0,0,0-13-.81.28.28,0,0,1-.09-.54Z" fill="#263238"/>
      <path id="Path_28231" data-name="Path 28231" d="M328.46,410.12c4.17-1.42,9.52-1.51,13.24,1.07.14.1,0,.3-.15.28a61.429,61.429,0,0,0-13-.81.28.28,0,0,1-.09-.54Z" fill="#263238"/>
      <path id="Path_28232" data-name="Path 28232" d="M332.51,397.46l48.66-6.71s-12.12-83-11.75-84.93c.47-2.46,29-118.89,29-118.89h-39.9s-32.82,108-34.08,118.42C322.37,322.19,332.51,397.46,332.51,397.46Z" fill="#37474f"/>
      <path id="Path_28233" data-name="Path 28233" d="M334.8,387.54c8.32-1.7,38.59-5.35,41.92-5.22a.08.08,0,0,1,0,.15c-3.19.95-29.25,4.45-41.92,5.28a.11.11,0,0,1,0-.21Z" fill="#263238"/>
      <path id="Path_28234" data-name="Path 28234" d="M389.33,195.87c-1,2.86-1.8,5.75-2.68,8.64s-1.66,5.79-2.52,8.68c-1.7,5.72-3.32,11.47-4.95,17.21-3.29,11.59-6.42,23.23-9.49,34.88q-2.28,8.66-4.51,17.33c-1.48,5.79-3.05,11.58-4.38,17.41a29.91,29.91,0,0,0-.87,8.37,80.418,80.418,0,0,0,1.18,8.6q1.44,8.92,2.89,17.84,2.91,18,6,36c.25,1.47.55,2.93.83,4.39,0,.08.16.06.15,0-1.6-11.93-3.6-23.81-5.49-35.69q-1.39-8.81-2.83-17.6c-.5-3.07-1-6.13-1.49-9.21a31.42,31.42,0,0,1-.32-8.82,76,76,0,0,1,1.89-8.53c.72-2.86,1.44-5.73,2.17-8.59q2.2-8.67,4.48-17.33,4.56-17.4,9.32-34.75t9.6-34.48c.4-1.43.79-2.85,1.15-4.28C389.48,195.82,389.35,195.79,389.33,195.87Z" fill="#263238"/>
      <path id="Path_28235" data-name="Path 28235" d="M354.3,442.84c2.3.73,67.66-.47,70.12-2.1.94-.6,1.32-10.14,1.45-21.67v-.36c0-2.38-1.3-42.23-1.3-42.23l-42.73.66L383.7,419v.72s-24.81,11.65-27.33,13.72S352,442.12,354.3,442.84Z" fill="#f7a9a0"/>
      <path id="Path_28236" data-name="Path 28236" d="M425.92,414.14v4.93c-.13,11.53-.51,21.07-1.46,21.67-2.45,1.63-67.82,2.83-70.12,2.1s-.4-7.32,2.1-9.39,27.33-13.72,27.33-13.72v-.72l-.19-4.45Z" fill="#fff"/>
      <path id="Path_28237" data-name="Path 28237" d="M354.3,442.84c2.3.73,67.66-.47,70.12-2.1.94-.6,1.32-10.14,1.45-21.67v-.36l-42.17.3v.72s-24.81,11.65-27.33,13.72S352,442.12,354.3,442.84Z" fill="#a6a6a6"/>
      <path id="Path_28238" data-name="Path 28238" d="M355,440.29c11-.47,55.48-1.34,66.41-1,.08,0,.09.06,0,.07-10.91.71-55.38,1.22-66.4,1.08C354.76,440.47,354.76,440.3,355,440.29Z" fill="#263238"/>
      <path id="Path_28239" data-name="Path 28239" d="M379,419.22c4.32-.89,9.64-.32,13,2.71.13.11,0,.3-.18.26a60.4,60.4,0,0,0-12.8-2.42.28.28,0,0,1-.02-.55Z" fill="#263238"/>
      <path id="Path_28240" data-name="Path 28240" d="M375.91,421.16c4.32-.89,9.63-.32,13,2.71.14.12,0,.3-.17.26a61.28,61.28,0,0,0-12.8-2.42.28.28,0,0,1-.03-.55Z" fill="#263238"/>
      <path id="Path_28241" data-name="Path 28241" d="M372.81,423.11c4.32-.89,9.64-.33,13,2.7.13.12,0,.3-.18.26a61,61,0,0,0-12.8-2.42.27.27,0,0,1-.02-.54Z" fill="#263238"/>
      <path id="Path_28242" data-name="Path 28242" d="M359.78,186.93s.92,19.09,5.29,34.21c.35,1.25.73,2.48,1.14,3.66,0,0,1.73,0,8.68,4.24l5.78,182.88,47.08-.5s-7.51-96.92-7.45-103.13c.09-10-5.39-77.56-4.82-79.27,5.85-17.45-3.83-42.09-3.83-42.09Z" fill="#37474f"/>
      <path id="Path_28243" data-name="Path 28243" d="M382.29,403.21c13.26-.8,38.95-1,42.25-.49a.07.07,0,1,1,0,.14c-3.28.59-34.49,1.19-42.24.56a.11.11,0,0,1-.01-.21Z" fill="#263238"/>
      <path id="Path_28244" data-name="Path 28244" d="M379.36,326.76q-.86-31.44-2.14-62.87c-.48-11.83-1-23.65-1.67-35.46a.32.32,0,1,0-.64,0c.51,21.08,1.34,42.14,2,63.21s1.42,41.92,2.14,62.88c.4,11.82.76,23.65,1.25,35.47a.13.13,0,0,0,.26,0C380.47,368.91,379.93,347.83,379.36,326.76Z" fill="#263238"/>
      <path id="Path_28245" data-name="Path 28245" d="M416.16,356q-1.5-20.625-3.05-41.23-1.575-20.61-3.07-41.24c-.51-6.88-1-13.75-1.54-20.62l-.81-10.31a91.86,91.86,0,0,1-.61-10.21c.13-3.73,1.7-7,2.57-10.6a41.37,41.37,0,0,0,1.06-10.35c-.09-7.18-1.7-14.25-3.19-21.24-.08-.38-.68-.21-.59.18A103.444,103.444,0,0,1,410.11,210a42.179,42.179,0,0,1-.69,9.84c-.61,3.11-1.91,6-2.64,9.07s-.34,6.45-.09,9.66c.27,3.44.5,6.88.74,10.31.48,6.74,1,13.47,1.5,20.21,2,27.35,4,54.71,6.17,82.06,1.2,15.39,2.22,30.81,3.71,46.18,0,.11.19.11.18,0C418.28,383.53,417.14,369.78,416.16,356Z" fill="#263238"/>
      <path id="Path_28246" data-name="Path 28246" d="M406.52,207.7c-.8-.31-1.68-.39-2.5-.63a20.506,20.506,0,0,1-2.53-.89,19.61,19.61,0,0,1-4.37-2.63,10.23,10.23,0,0,1-2.83-4.12c-.36-.85-.69-1.71-1-2.56l-.52-1.26c-.07-.17-.52-1.06-.6-1.34a.09.09,0,0,0,.12,0v-.05a.08.08,0,0,0,0-.1c-.05-.1-.06-.11-.17-.14a.12.12,0,0,0-.12.06c-.16.28,0,.55.07.85.15.56.29,1.12.43,1.68.26,1,.52,1.95.82,2.92a9.92,9.92,0,0,0,2.84,4.75A15.441,15.441,0,0,0,401,207a16.809,16.809,0,0,0,2.8.77,7.58,7.58,0,0,0,2.68.16C406.68,207.94,406.63,207.74,406.52,207.7Z" fill="#263238"/>
      <path id="Path_28247" data-name="Path 28247" d="M368.66,218.22c-.11-1.65-.24-3.29-.38-4.94-.33-3.75-.72-7.51-1.38-11.22,0-.29-.46-.18-.43.1.25,2.91.58,5.82.85,8.73s.63,5.81.68,8.71c0,.87-.05,2.35-1.12,2.59-1.44.33-2.12-1.56-2.47-2.6a47.9,47.9,0,0,1-1.8-7.93c-.48-3.06-.73-6.16-1-9.23,0-.12-.2-.1-.2,0,0,6.11.07,12.5,2.35,18.27a3.4,3.4,0,0,0,2.53,2.41h.06a.16.16,0,0,0,0,.1,3.064,3.064,0,0,0,.1.51c.03.17.05.29.08.43.06.3.11.6.18.89a.221.221,0,1,0,.44-.05.19.19,0,0,0,.13-.18,4.75,4.75,0,0,0-.4-1.73,2.12,2.12,0,0,0,1.58-1.33,7.6,7.6,0,0,0,.2-3.53Z" fill="#263238"/>
      <path id="Path_28248" data-name="Path 28248" d="M364.25,223.66a88.379,88.379,0,0,1,13.46,7.05c.17.11,0,.37-.14.28-4.54-2.21-9.18-4.33-13.59-6.78a.31.31,0,0,1,.27-.55Z" fill="#263238"/>
      <path id="Path_28249" data-name="Path 28249" d="M363.74,162.22a42.329,42.329,0,0,0,8.17,5.07c-4.43-7.48-3.76-24.37-3.22-22,2.59,11.52,9.83,24.13,12.59,24.76h.05a31.74,31.74,0,0,0,19.73-4.17h0c-5.71-8.46-5.48-25.64-5.1-24.59,4.2,11.2,12.87,17.75,14.37,17.73h0c5.56-5.32,8.5-10.63,7.71-11.17-5.77-3.92-10.68-14-15.11-24.71h0c-4.38-10.53-6.6-20.55-12.76-29.95-5.64-8.61-16.9-10.24-23.28-5.84C350.15,98.9,360.17,159.42,363.74,162.22Z" fill="#263238"/>
      <path id="Path_28250" data-name="Path 28250" d="M381.14,87.82c4.64,1.09,8.45,5.34,10.88,9.27,3.23,5.22,5.36,11.14,8,16.66a115.709,115.709,0,0,0,20.21,29.71.21.21,0,0,1-.28.3c-9-6.78-15.17-16.51-20.22-26.52-2.59-5.11-4.62-10.46-7.06-15.64a34.68,34.68,0,0,0-4.94-7.95,21.34,21.34,0,0,0-6.92-5,.447.447,0,1,1,.33-.83Z" fill="#263238"/>
      <path id="Path_28251" data-name="Path 28251" d="M440.77,305.52l-65.71,11.74-2.37-68.64,46.54-8.32Z" fill="#ebebeb"/>
      <path id="Path_28252" data-name="Path 28252" d="M419.23,240.3l4.66,68.24,16.89-3.02Z" fill="#dbdbdb"/>
      <path id="Path_28253" data-name="Path 28253" d="M385.7,251.32h-2.42v-13.4c0-7.25,6.16-11.9,12-12.22,4.41-.24,9.84,2.06,10.67,9.31.88,7.75,1.08,11.45,1.09,11.6l-2.42.13s-.2-3.79-1.08-11.46c-.63-5.57-4.61-7.35-8.13-7.16-4.75.25-9.71,4-9.75,9.82C385.66,244.64,385.7,251.26,385.7,251.32Z" fill="#263238"/>
      <path id="Path_28254" data-name="Path 28254" d="M424.69,307.87c1.18-1.21,2.42-2.34,3.66-3.47s2.52-2.21,3.81-3.29l.18-.14.2.1c1.26.63,2.52,1.27,3.75,1.95s2.48,1.36,3.69,2.11c-1.33-.51-2.63-1.07-3.91-1.65s-2.57-1.17-3.84-1.78l.38-.05c-1.28,1.09-2.57,2.15-3.89,3.2S426.07,306.91,424.69,307.87Z" fill="#fff"/>
      <path id="Path_28255" data-name="Path 28255" d="M432.38,301.38c-1.05-4.21-2-8.45-3-12.68s-1.87-8.48-2.81-12.73-1.79-8.49-2.64-12.75l-1.27-6.39c-.4-2.14-.82-4.27-1.19-6.41.53,2.1,1,4.22,1.53,6.33l1.46,6.35c1,4.24,1.87,8.48,2.81,12.73s1.79,8.49,2.64,12.75S431.62,297.1,432.38,301.38Z" fill="#fff"/>
      <path id="Path_28256" data-name="Path 28256" d="M387.63,250.65a3.22,3.22,0,1,1-3.82-2.47A3.22,3.22,0,0,1,387.63,250.65Z" fill="#263238"/>
      <path id="Path_28257" data-name="Path 28257" d="M408.78,246.06A3.21,3.21,0,1,1,405,243.6a3.21,3.21,0,0,1,3.78,2.46Z" fill="#263238"/>
      <path id="Path_28258" data-name="Path 28258" d="M433.12,325.21H356.01l11.24-78.55h54.63Z" fill="#fff"/>
      <path id="Path_28259" data-name="Path 28259" d="M421.87,246.66l-8.56,78.55h19.81Z" opacity="0.1"/>
      <path id="Path_28260" data-name="Path 28260" d="M382.64,252.08l-2.41-.51c0-.07,1.41-6.67,2.9-13.33,1.62-7.2,8.7-10.51,14.61-9.56,4.43.72,9.34,4.17,8.6,11.56-.79,7.9-1.39,11.62-1.41,11.78l-2.43-.4s.61-3.81,1.39-11.63c.57-5.67-3-8.3-6.54-8.88-4.78-.77-10.52,1.89-11.82,7.67C384,245.42,382.65,252,382.64,252.08Z" fill="#263238"/>
      <path id="Path_28261" data-name="Path 28261" d="M414.35,324.61c1.58-1.13,3.23-2.16,4.87-3.2s3.31-2,5-3l.24-.14.21.16c1.3,1,2.6,2,3.87,3s2.54,2.05,3.76,3.14c-1.4-.85-2.77-1.75-4.11-2.67s-2.68-1.85-4-2.81h.44q-2.5,1.46-5.07,2.84C417.83,322.89,416.12,323.8,414.35,324.61Z" fill="#fff"/>
      <path id="Path_28262" data-name="Path 28262" d="M424.42,318.8c-.34-5-.59-10-.83-15s-.4-10-.61-15-.31-10-.41-15l-.14-7.53c0-2.51-.07-5-.06-7.53.18,2.51.3,5,.46,7.52l.37,7.52c.23,5,.4,10,.6,15s.32,10,.42,15S424.42,313.78,424.42,318.8Z" fill="#fff"/>
      <circle id="Ellipse_163" data-name="Ellipse 163" cx="3.27" cy="3.27" r="3.27" transform="translate(378.16 248.55)" fill="#263238"/>
      <circle id="Ellipse_164" data-name="Ellipse 164" cx="3.27" cy="3.27" r="3.27" transform="translate(400.19 248.55)" fill="#263238"/>
      <path id="Path_28263" data-name="Path 28263" d="M321.54,104l9.28,28.88c.36.85,0,1.57-.87,1.63l-15.15,1a2.47,2.47,0,0,1-2.2-1.43l-9.27-28.89c-.37-.84,0-1.57.86-1.62l15.15-1a2.45,2.45,0,0,1,2.2,1.43Z" fill="#a6a6a6"/>
      <path id="Path_28264" data-name="Path 28264" d="M319.74,104.1,329,133a1.06,1.06,0,0,1-.87,1.63l-15.15,1a2.45,2.45,0,0,1-2.2-1.42l-9.27-28.89c-.37-.84,0-1.57.86-1.62l15.15-1a2.45,2.45,0,0,1,2.22,1.4Z" fill="#dbdbdb"/>
      <path id="Path_28265" data-name="Path 28265" d="M315.68,105.7a1.29,1.29,0,1,0,1.17-1.39,1.27,1.27,0,0,0-1.17,1.39Z" fill="#455a64"/>
      <path id="Path_28266" data-name="Path 28266" d="M373.22,145.33c-7.24,18.87-24.76,44-32.71,44.65-3.78.33-10.48,1.72-15.76-2.27-11.54-8.7-21.92-26.2-24.53-36.46-.92-3.65,16.48-13,19.36-10.15,6.73,6.59,15,19.9,16.06,19.74,4.05-.61,19-15,29.46-25.18C377.77,123.34,376.1,137.81,373.22,145.33Z" fill="#f7a9a0"/>
      <path id="Path_28267" data-name="Path 28267" d="M298.39,132.17c1.35-7.64,2.88-9.4.6-16.46-1.5-4.63.82-7.58,4.43-4,5.92,5.79,6.24,16,5.33,19.6Z" fill="#f7a9a0"/>
      <path id="Path_28268" data-name="Path 28268" d="M301.34,154.4s-4.12-10.21-3.48-18.5c.45-5.74,2.8-18.1,18.21-25.66,3.66-1.79,10.14-1.75,5.23,3.34-3.49,3.62-6.79,4.86-8.43,7.34,0,0,8.23,1,9.88,4.76a75.138,75.138,0,0,1,3.63,10.06,16.277,16.277,0,0,1-1.82.84s1.21,3.64-1.1,9Z" fill="#f7a9a0"/>
      <path id="Path_28269" data-name="Path 28269" d="M299.16,130.49c2.15-2.11,6.78-6.51,11.83-8.79,5.6-2.53,17.07-5.89,18.89-1.74,1.34,3-2.92,4.71-2.92,4.71s5-.39,5.64,2.63c.55,2.75-2.83,3.84-2.83,3.84s3.1.29,3.12,3c0,3.3-6.46,2.16-9.33,5.54C322.92,140.47,299.16,130.49,299.16,130.49Z" fill="#f7a9a0"/>
      <path id="Path_28270" data-name="Path 28270" d="M312.67,128.07a24.46,24.46,0,0,1,14.18-3.47c.13,0,.19.11.07.13a60.29,60.29,0,0,0-14.22,3.39Z" fill="#263238"/>
      <path id="Path_28271" data-name="Path 28271" d="M315.39,133.65c2.18-1.22,8.78-3.39,14.36-2.62.13,0,.18.12.06.13a65.081,65.081,0,0,0-14.4,2.54S315.37,133.66,315.39,133.65Z" fill="#263238"/>
      <path id="Path_28272" data-name="Path 28272" d="M325.65,147.4l-20.88,24.21s17.88,17.49,23.7,18.87a26.45,26.45,0,0,0,14.3-.61c4.07-1.17,24.08-24.36,30.66-43.32s-.48-19.87-11.71-8.39-25.13,22.78-25.8,22S325.65,147.4,325.65,147.4Z" fill="#fff"/>
      <path id="Path_28273" data-name="Path 28273" d="M325.65,147.4l-20.88,24.21s17.88,17.49,23.7,18.87a26.45,26.45,0,0,0,14.3-.61c4.07-1.17,24.08-24.36,30.66-43.32s-.48-19.87-11.71-8.39-25.13,22.78-25.8,22S325.65,147.4,325.65,147.4Z" opacity="0.1"/>
      <path id="Path_28274" data-name="Path 28274" d="M329.44,154c-.85.77-7.82,8.65-9.37,10.42s-7.47,9-9,10.81c-.06.08,0,.19.12.11.81-.88,1.69-1.7,2.5-2.58s5.46-6.16,7-7.92,8.26-9.77,8.9-10.74C329.64,154,329.51,154,329.44,154Z" fill="#263238"/>
      <path id="Path_28275" data-name="Path 28275" d="M354.16,178.6l-3.87,33.59s54.53-.82,68-2.18c0,0-12.91-62.2-27.93-77.56-7.51-7.68-16-6.84-21.32-1.15-1.34,1.44-17.13,23.66-18.61,32C349.18,170.68,354.16,178.6,354.16,178.6Z" fill="#fff"/>
      <path id="Path_28276" data-name="Path 28276" d="M352,173.14a20.31,20.31,0,0,1-1-5.89,28.07,28.07,0,0,1,3-11.73c1-2.09,2.2-4.07,3.17-6.16,0-.06-.06-.1-.09-.05a42.917,42.917,0,0,0-2.58,4.35.88.88,0,0,1,.05-.15c.25-.81.5-1.6.79-2.39,0-.08-.11-.14-.15-.06-.32.77-.63,1.54-.91,2.33a13.832,13.832,0,0,0-.44,1.52,38.913,38.913,0,0,0-2.45,5.72,19.49,19.49,0,0,0-.26,12.08,21.407,21.407,0,0,0,1.24,3c.53,1.08,1.2,2.08,1.77,3.13,0,.09.18,0,.13-.08a30.349,30.349,0,0,1-2.27-5.62Z" fill="#263238"/>
      <path id="Path_28277" data-name="Path 28277" d="M381.5,131.51c-.45,1-6.77,6.89-11.54,5.76-1.55-.38.1-9,.1-9v-.66l-.3-9.24,11.68-4.72,1.67-.6s-.08,2.54-.21,5.69v2.4a5.305,5.305,0,0,1-.07,1.1,8.734,8.734,0,0,0-.08,1.14A60.828,60.828,0,0,1,381.5,131.51Z" fill="#f7a9a0"/>
      <path id="Path_28278" data-name="Path 28278" d="M382.88,118.79A18.58,18.58,0,0,1,370,127.66l-.3-9.24,11.68-4.72,1.67-.6S383,115.64,382.88,118.79Z" fill="#263238"/>
      <path id="Path_28279" data-name="Path 28279" d="M358.82,104.19c-2.22,16.09,7.16,19.23,10.63,19.71,3.15.43,13.93,1.5,17.8-14.27s-2.91-21.89-10.05-23.25S361,88.11,358.82,104.19Z" fill="#f7a9a0"/>
      <path id="Path_28280" data-name="Path 28280" d="M363.17,100.86a10.359,10.359,0,0,0,1.12-.08,1.79,1.79,0,0,0,1.13-.3.57.57,0,0,0,.09-.7,1.44,1.44,0,0,0-1.35-.52,2.1,2.1,0,0,0-1.41.55.62.62,0,0,0,.42,1.05Z" fill="#263238"/>
      <path id="Path_28281" data-name="Path 28281" d="M373.76,102.44c-.37-.1-.7-.25-1.06-.38a1.83,1.83,0,0,1-1-.59.58.58,0,0,1,.1-.7,1.43,1.43,0,0,1,1.44-.14,2.08,2.08,0,0,1,1.21.92.62.62,0,0,1-.69.89Z" fill="#263238"/>
      <path id="Path_28282" data-name="Path 28282" d="M371.05,106.2s.08.06.07.11c-.21,1.08-.27,2.36.66,2.89v.06C370.58,108.89,370.68,107.19,371.05,106.2Z" fill="#263238"/>
      <path id="Path_28283" data-name="Path 28283" d="M372.21,105.22c1.78.15,1.35,3.69-.3,3.55S370.72,105.09,372.21,105.22Z" fill="#263238"/>
      <path id="Path_28284" data-name="Path 28284" d="M372.89,105.49c.28.24.54.63.91.71s.8-.23,1.12-.55h.06c-.07.68-.42,1.35-1.16,1.36s-1.08-.65-1.17-1.35C372.64,105.57,372.77,105.39,372.89,105.49Z" fill="#263238"/>
      <path id="Path_28285" data-name="Path 28285" d="M364.74,105.16a.1.1,0,0,0-.1.09c-.09,1.1-.38,2.35-1.42,2.6v.06C364.46,107.88,364.83,106.22,364.74,105.16Z" fill="#263238"/>
      <path id="Path_28286" data-name="Path 28286" d="M363.89,103.9c-1.75-.34-2.3,3.19-.68,3.5S365.36,104.18,363.89,103.9Z" fill="#263238"/>
      <path id="Path_28287" data-name="Path 28287" d="M363.12,104c-.31.14-.64.44-1,.41s-.62-.46-.81-.86h-.06c-.12.67,0,1.4.62,1.63s1.09-.3,1.36-.94C363.31,104.17,363.24,104,363.12,104Z" fill="#263238"/>
      <path id="Path_28288" data-name="Path 28288" d="M369.61,115c-.29.24-.58.57-1,.58a3,3,0,0,1-1.16-.37h-.06a1.52,1.52,0,0,0,1.36.71,1.2,1.2,0,0,0,.94-.91.06.06,0,0,0-.08-.01Z" fill="#263238"/>
      <path id="Path_28289" data-name="Path 28289" d="M365.56,110.37s-.45,1.61-.55,2.38c0,.07.17.13.43.18h0a3.72,3.72,0,0,0,3.75-.89.082.082,0,0,0-.1-.13,5.53,5.53,0,0,1-3.48.51c0-.22.86-2.72.74-2.75a6.87,6.87,0,0,0-1.81.16c.83-3.37,2.2-6.58,3-10a.11.11,0,0,0-.2-.08,56.491,56.491,0,0,0-3.66,10.59C363.57,110.83,365.23,110.46,365.56,110.37Z" fill="#263238"/>
      <path id="Path_28290" data-name="Path 28290" d="M385.84,109.69c-4-.29-4.66-12.56-4.73-14.06,0,1-.06,6-.45,6.17a4.16,4.16,0,0,1-1.24-.28h0a11.212,11.212,0,0,0-.08-1.81,9.2,9.2,0,0,0-.32,1.68l-.73-.23a14.519,14.519,0,0,0-.23-3.84c-.1-.48-.31,1.65-.83,3.51a48.16,48.16,0,0,0-10.34-2.24c-1-.07-1.85-.09-2.61-.09.05-1.48.28-3.06.16-2.72a14.309,14.309,0,0,0-.72,2.74h-1.14c0-2.11,1.11-5.42.75-4.92a14.69,14.69,0,0,0-2.22,5.09c-1.45.23-1.85.49-1.88.12A17.52,17.52,0,0,1,365,88.2c5.15-4.49,15.11-5.28,20.42,2.14,0,0,4.49,3.18,5,8S388.13,109.86,385.84,109.69Z" fill="#263238"/>
      <path id="Path_28291" data-name="Path 28291" d="M384.52,110.51s3.8-4.88,6-3.5-.8,8.58-3.55,9.44a2.75,2.75,0,0,1-3.6-1.66Z" fill="#f7a9a0"/>
      <path id="Path_28292" data-name="Path 28292" d="M389.63,109.05v.07c-1.93.67-3,2.38-3.8,4.16a1.51,1.51,0,0,1,2.28-.3c.05,0,0,.11-.05.1a1.69,1.69,0,0,0-1.89.49,8,8,0,0,0-1,1.46c-.1.16-.4.06-.33-.13v-.05C385,112.44,387,109.16,389.63,109.05Z" fill="#263238"/>
      <path id="Path_28293" data-name="Path 28293" d="M393.29,132.41C412,147.7,427.13,171.08,427.93,177c.88,6.52-1.4,30.19-7.57,42.21-1.63,3.17-25.82-11.26-24.22-14.72,3.08-6.66,7.65-24.91,7-28.54-.61-3.36-10.14-23.59-16.66-34.21C380.44,132,384.58,125.3,393.29,132.41Z" fill="#f7a9a0"/>
      <path id="Path_28294" data-name="Path 28294" d="M377.52,233.25a4.24,4.24,0,0,0,4.56,1.65,6.33,6.33,0,0,0,1.54,4c1.79,1.88,5.52-.11,5.52-.11a7.86,7.86,0,0,0,2.3,4c1.9,1.62,5.95.15,5.95.15a6.8,6.8,0,0,0,4.21,2.21c4.36.37,8.38-5,11-8.34s6.77-15.35,7.8-17.55l-21.49-16.79s-15.9,11.81-18.38,16.2C378.41,222.34,375.71,230.47,377.52,233.25Z" fill="#f7a9a0"/>
      <path id="Path_28295" data-name="Path 28295" d="M381.85,234.48c1.28-4.46,3.8-8.31,6.11-12.3.05-.09.19,0,.13.08-2.33,3.94-3.86,8.29-6,12.31C382,234.68,381.82,234.6,381.85,234.48Z" fill="#263238"/>
      <path id="Path_28296" data-name="Path 28296" d="M388.92,238.5a11.9,11.9,0,0,1,1.53-2.77c.61-.94,1.24-1.88,1.88-2.8,1.28-1.84,2.6-3.66,4-5.44.06-.08.2,0,.14.08-1.28,1.85-2.52,3.71-3.72,5.6-.6,1-1.19,1.9-1.77,2.86a15.192,15.192,0,0,1-1.78,2.63.161.161,0,1,1-.28-.16Z" fill="#263238"/>
      <path id="Path_28297" data-name="Path 28297" d="M397.44,242.82A8.391,8.391,0,0,1,399,240.4c.61-.83,1.2-1.66,1.8-2.5,1.18-1.67,2.37-3.34,3.49-5.05.06-.08.19,0,.14.08-1.14,1.75-2.25,3.51-3.4,5.24q-.84,1.28-1.71,2.55a8,8,0,0,1-1.75,2.16.072.072,0,0,1-.13-.06Z" fill="#263238"/>
      <path id="Path_28298" data-name="Path 28298" d="M384.29,139.76c3.61,10.18,18.18,34.39,18.09,36.72s-7.2,26.61-7.2,26.61l28.89,17.54s6.44-33.06,4-44.56c-1.85-8.84-22.21-34.5-32.11-42.4S379.67,126.72,384.29,139.76Z" fill="#fff"/>
      <path id="Path_28299" data-name="Path 28299" d="M384.29,139.76c3.61,10.18,18.18,34.39,18.09,36.72s-7.2,26.61-7.2,26.61l28.89,17.54s6.44-33.06,4-44.56c-1.85-8.84-22.21-34.5-32.11-42.4S379.67,126.72,384.29,139.76Z" opacity="0.1"/>
      <path id="Path_28300" data-name="Path 28300" d="M402.41,175.07a17.62,17.62,0,0,0-2.14-4.82c-1.83-3.37-3.65-6.75-5.57-10.07-1.07-1.84-5.37-8.89-6.64-11.15-.12-.21-.42,0-.31.19.69,1.38,2.73,5.05,4.16,7.6-.22-.27-.44-.55-.68-.81a15.041,15.041,0,0,0-1.35-1.41,10.818,10.818,0,0,1-1.47-1.48c-.05-.08-.19,0-.13.08a38.253,38.253,0,0,0,2.57,3c.44.51.88,1,1.3,1.54.29.34.56.7.86,1,.07.13.14.24.19.34,1.88,3.25,3.65,6.57,5.42,9.88a47.178,47.178,0,0,1,2.52,4.9,5.781,5.781,0,0,1,.45,2.46,13.491,13.491,0,0,1-.63,2.95c-1,3.61-1.94,7.23-2.88,10.85-.54,2.09-1.08,4.19-1.58,6.29s-1.08,4.2-1.38,6.34c0,.14.19.26.25.1a55.993,55.993,0,0,0,1.75-5.51q.83-2.82,1.59-5.65,1.5-5.715,3-11.46A11.538,11.538,0,0,0,402.41,175.07Z" fill="#263238"/>
      <path id="Path_28301" data-name="Path 28301" d="M423.78,213.05a263.466,263.466,0,0,0-24.36-15.26.08.08,0,0,0-.08.13,265.657,265.657,0,0,0,24.32,15.33.12.12,0,0,0,.12-.2Z" fill="#263238"/>
    </g>
  </g>
</svg>
