<svg xmlns="http://www.w3.org/2000/svg" xmlns:xlink="http://www.w3.org/1999/xlink" width="213" height="120" viewBox="0 0 213 120">
  <defs>
    <clipPath id="clip-path">
      <rect id="Rectangle_2202" data-name="Rectangle 2202" width="213" height="120" transform="translate(173 1393)" fill="#fff" stroke="#dcdcdc" stroke-width="1"/>
    </clipPath>
  </defs>
  <g id="Mask_Group_123" data-name="Mask Group 123" transform="translate(-173 -1393)" clip-path="url(#clip-path)">
    <g id="Group_3472" data-name="Group 3472" transform="translate(0 13)">
      <g id="freepik--character-1--inject-22" transform="translate(108.381 1178.585)">
        <path id="Path_27900" data-name="Path 27900" d="M143.6,288.28l-41.32,19.69L114.2,424.74h82.37l11.65-118.71L169.39,288Z" fill="#e30b1c" stroke="#263238" stroke-linecap="round" stroke-linejoin="round" stroke-width="1"/>
        <circle id="Ellipse_155" data-name="Ellipse 155" cx="1.4" cy="1.4" r="1.4" transform="translate(158.76 321.11)" fill="#263238"/>
        <path id="Path_27901" data-name="Path 27901" d="M161.56,330.91a1.4,1.4,0,1,1-1.4-1.4A1.4,1.4,0,0,1,161.56,330.91Z" fill="#263238"/>
        <path id="Path_27902" data-name="Path 27902" d="M174.49,294.24,163.2,306.83l-4.82,12.23-5.19-12.41-10.92-12.41V272.2h32.22Z" fill="#fff" stroke="#263238" stroke-linecap="round" stroke-linejoin="round" stroke-width="1"/>
        <path id="Path_27903" data-name="Path 27903" d="M142.27,282a22.62,22.62,0,0,0,17.5,8.25h0a22.56,22.56,0,0,0,14.72-5.44V272.2H142.27Z" fill="#263238" stroke="#263238" stroke-linecap="round" stroke-linejoin="round" stroke-width="1"/>
        <rect id="Rectangle_2198" data-name="Rectangle 2198" width="45.38" height="73.53" rx="20.42" transform="translate(137.08 210.52)" fill="#fff" stroke="#263238" stroke-linecap="round" stroke-linejoin="round" stroke-width="1"/>
        <path id="Path_27904" data-name="Path 27904" d="M164.12,243.12l-.67,16.07a3.4,3.4,0,0,1-2.29,3.15c-1.21.37-2.59,0-3.34-2.73" fill="none" stroke="#263238" stroke-linecap="round" stroke-linejoin="round" stroke-width="1"/>
        <path id="Path_27905" data-name="Path 27905" d="M151,265.53h18s-3.15,6.86-9.26,6.86S151,265.53,151,265.53Z" fill="#263238" stroke="#263238" stroke-linecap="round" stroke-linejoin="round" stroke-width="1"/>
        <path id="Path_27906" data-name="Path 27906" d="M152.28,267.94h15.16a14.768,14.768,0,0,0,1.5-2.41H151A13.109,13.109,0,0,0,152.28,267.94Z" fill="#fff" stroke="#263238" stroke-linecap="round" stroke-linejoin="round" stroke-width="1"/>
        <ellipse id="Ellipse_156" data-name="Ellipse 156" cx="1.3" cy="3.06" rx="1.3" ry="3.06" transform="translate(149.49 244.23)" fill="#263238"/>
        <ellipse id="Ellipse_157" data-name="Ellipse 157" cx="1.3" cy="3.06" rx="1.3" ry="3.06" transform="translate(168.93 244.23)" fill="#263238"/>
        <path id="Path_27907" data-name="Path 27907" d="M166.16,239.23s4.44-2.78,9.45,1.67" fill="none" stroke="#263238" stroke-linecap="round" stroke-linejoin="round" stroke-width="1"/>
        <path id="Path_27908" data-name="Path 27908" d="M159.77,210.52h0a22.69,22.69,0,0,0-22.69,22.69v20.67h2.04v-8.52s9.26,0,20.19-5.92S173,223.86,173,223.86s2.41,11.67,5,13.89l2.6,2.22v14.08h1.85V233.21A22.69,22.69,0,0,0,159.77,210.52Z" fill="#263238" stroke="#263238" stroke-linecap="round" stroke-linejoin="round" stroke-width="1"/>
        <path id="Path_27909" data-name="Path 27909" d="M132.83,242.94h4.25v16.85h-4.25a4.08,4.08,0,0,1-4.08-4.08V247a4.08,4.08,0,0,1,4.08-4.06Z" fill="#fff" stroke="#263238" stroke-linecap="round" stroke-linejoin="round" stroke-width="1"/>
        <path id="Path_27910" data-name="Path 27910" d="M186.26,242.94h4.25v16.85h-4.25a4.08,4.08,0,0,1-4.08-4.08V247a4.08,4.08,0,0,1,4.08-4.06Z" transform="translate(372.7 502.73) rotate(180)" fill="#fff" stroke="#263238" stroke-linecap="round" stroke-linejoin="round" stroke-width="1"/>
        <path id="Path_27911" data-name="Path 27911" d="M133.38,242.94V232.19a26.3,26.3,0,0,1,26.3-26.3h0a26.31,26.31,0,0,1,26.3,26.3v10.75" fill="none" stroke="#263238" stroke-linejoin="round" stroke-width="2"/>
        <path id="Path_27912" data-name="Path 27912" d="M186,259.79s-1.3,10-13.52,14.08" fill="none" stroke="#263238" stroke-linecap="round" stroke-linejoin="round" stroke-width="1"/>
        <path id="Path_27913" data-name="Path 27913" d="M172,273.43c.52,1.5-.94,3.36-3.26,4.17s-4.62.24-5.14-1.26.94-3.36,3.26-4.17S171.51,271.93,172,273.43Z" fill="none" stroke="#263238" stroke-linecap="round" stroke-linejoin="round" stroke-width="1"/>
        <path id="Path_27914" data-name="Path 27914" d="M102.28,307.97,67.33,381.92,81.75,394.5l26.07-32.72Z" fill="#e30b1c" stroke="#263238" stroke-linecap="round" stroke-linejoin="round" stroke-width="1"/>
        <path id="Path_27915" data-name="Path 27915" d="M99.41,330.64l8.49,28.64L97.82,342.83" fill="none" stroke="#263238" stroke-width="1"/>
        <path id="Path_27916" data-name="Path 27916" d="M208.22,306.03l33.28,74.33-20.52,8.88-18.31-29.4Z" fill="#e30b1c" stroke="#263238" stroke-linecap="round" stroke-linejoin="round" stroke-width="1"/>
        <path id="Path_27917" data-name="Path 27917" d="M86.19,380.08l29.95,28.01-8.32,9.71L64.28,390.79l5-13.31" fill="#e30b1c" stroke="#263238" stroke-linecap="round" stroke-linejoin="round" stroke-width="1"/>
        <path id="Path_27918" data-name="Path 27918" d="M111.15,406.43c1.22-.66,21.63-5.55,21.91-3.05s6.38,5.27,9.15,5.27,5.55-2.22,6.1,1.11-2.49,3.6-5,3.88-11.09-2.5-11.09-2.5-8,6.66-11.37,8.33-9.43,1.1-11.65-.56S103.94,410.31,111.15,406.43Z" fill="#fff" stroke="#263238" stroke-linecap="round" stroke-linejoin="round" stroke-width="1"/>
        <path id="Path_27919" data-name="Path 27919" d="M130,403.1s7.77-2.22,9.43-1.38,2.5,17.47,2.5,17.47-.84,1.66-2.5,0-7.2-14.19-7.2-14.19" fill="#fff" stroke="#263238" stroke-linecap="round" stroke-linejoin="round" stroke-width="1"/>
        <path id="Path_27920" data-name="Path 27920" d="M126.13,403.66s8-1.94,9.7,1.11,5.83,16.64,2.5,17.19-4.44-3.88-4.44-3.88l-5.27-9.71-3.6-.55" fill="#fff" stroke="#263238" stroke-linecap="round" stroke-linejoin="round" stroke-width="1"/>
        <path id="Path_27921" data-name="Path 27921" d="M123.35,406.15s3.89-1.66,5.83-.27S140,421.41,138.33,422s-5.55.28-6.1-.83-7.77-10.54-7.77-10.54" fill="#fff" stroke="#263238" stroke-linecap="round" stroke-linejoin="round" stroke-width="1"/>
        <path id="Path_27922" data-name="Path 27922" d="M120.58,410.87s3.61-3.33,5.55-2.22,10,11.65,8.32,12.76-2.78,0-4.44-2.22a19.43,19.43,0,0,0-4.16-3.89l-3.33,1.11" fill="#fff" stroke="#263238" stroke-linecap="round" stroke-linejoin="round" stroke-width="1"/>
        <path id="Path_27923" data-name="Path 27923" d="M215.95,373l-17.56,37.06,11.3,5.97,33.21-35.19-9.53-10.55" fill="#e30b1c" stroke="#263238" stroke-linecap="round" stroke-linejoin="round" stroke-width="1"/>
        <path id="Path_27924" data-name="Path 27924" d="M207.18,406.43c-1.22-.66-21.64-5.55-21.91-3.05s-6.38,5.27-9.16,5.27-5.54-2.22-6.1,1.11,2.5,3.6,5,3.88,11.09-2.5,11.09-2.5,8,6.66,11.37,8.33,9.43,1.1,11.65-.56S214.39,410.31,207.18,406.43Z" fill="#fff" stroke="#263238" stroke-linecap="round" stroke-linejoin="round" stroke-width="1"/>
        <path id="Path_27925" data-name="Path 27925" d="M188.32,403.1s-7.77-2.22-9.43-1.38-2.5,17.47-2.5,17.47.83,1.66,2.5,0S186.1,405,186.1,405" fill="#fff" stroke="#263238" stroke-linecap="round" stroke-linejoin="round" stroke-width="1"/>
        <path id="Path_27926" data-name="Path 27926" d="M192.2,403.66s-8-1.94-9.71,1.11S176.67,421.41,180,422s4.43-3.88,4.43-3.88l5.27-9.71,3.61-.55" fill="#fff" stroke="#263238" stroke-linecap="round" stroke-linejoin="round" stroke-width="1"/>
        <path id="Path_27927" data-name="Path 27927" d="M195,406.15s-3.88-1.66-5.82-.27S178.33,421.41,180,422s5.54.28,6.1-.83,7.76-10.54,7.76-10.54" fill="#fff" stroke="#263238" stroke-linecap="round" stroke-linejoin="round" stroke-width="1"/>
        <path id="Path_27928" data-name="Path 27928" d="M197.75,410.87s-3.61-3.33-5.55-2.22-10,11.65-8.32,12.76,2.77,0,4.44-2.22a19.43,19.43,0,0,1,4.16-3.89l3.33,1.11" fill="#fff" stroke="#263238" stroke-linecap="round" stroke-linejoin="round" stroke-width="1"/>
      </g>
      <g id="freepik--text-balloon--inject-22" transform="translate(108.381 1178.585)">
        <path id="Path_27929" data-name="Path 27929" d="M259.66,168.21h-65a11.37,11.37,0,0,0-11.37,11.36v19A11.37,11.37,0,0,0,194.64,210h8l-10.91,14.27L216.26,210h43.4A11.37,11.37,0,0,0,271,198.6v-19A11.37,11.37,0,0,0,259.66,168.21Z" fill="#fff" stroke="#263238" stroke-width="1"/>
        <path id="Path_27930" data-name="Path 27930" d="M218.23,190.41a2.65,2.65,0,1,1-2.65-2.64,2.65,2.65,0,0,1,2.65,2.64Z" fill="#263238"/>
        <path id="Path_27931" data-name="Path 27931" d="M229.79,190.41a2.65,2.65,0,1,1-2.64-2.64,2.65,2.65,0,0,1,2.64,2.64Z" fill="#263238"/>
        <path id="Path_27932" data-name="Path 27932" d="M241.35,190.41a2.64,2.64,0,1,1-2.64-2.64A2.64,2.64,0,0,1,241.35,190.41Z" fill="#263238"/>
      </g>
    </g>
  </g>
</svg>
