<svg xmlns="http://www.w3.org/2000/svg" xmlns:xlink="http://www.w3.org/1999/xlink" width="213" height="120" viewBox="0 0 213 120">
  <defs>
    <clipPath id="clip-path">
      <rect id="Rectangle_2204" data-name="Rectangle 2204" width="213" height="120" transform="translate(173 1393)" fill="#fff" stroke="#dcdcdc" stroke-width="1"/>
    </clipPath>
  </defs>
  <g id="Mask_Group_124" data-name="Mask Group 124" transform="translate(-173 -1393)" clip-path="url(#clip-path)">
    <g id="Questions-bro" transform="translate(77.09 1279.435)">
      <g id="freepik--question-marks-2--inject-4" transform="translate(95.91 88.358)">
        <path id="Path_27936" data-name="Path 27936" d="M367.684,319.17v-2.235c0-11.51,14.573-12.01,14.573-20.2,0-3.556-2.9-5.878-7.206-5.878-4.717,0-7.7,2.569-7.7,6.212v.914c0,.907-.494,1.335-1.408,1.335l-8.854-.334c-.827,0-1.408-.414-1.408-.988v-.914c0-10.009,7.947-16.888,19.624-16.888,11.423,0,18.79,6.459,18.79,16.141,0,13.745-14.819,13.832-14.819,21.352v1.488a1.268,1.268,0,0,1-1.408,1.408h-8.774a1.268,1.268,0,0,1-1.408-1.408Zm-.747,13.345a7.095,7.095,0,0,1,14.159,0c0,3.643-3.336,6.626-7.119,6.626a6.931,6.931,0,0,1-7.039-6.639Z" transform="translate(-181.093 -201.219)" fill="#484848"/>
        <path id="Path_27937" data-name="Path 27937" d="M106.292,179.613v-1.942c0-10.009,12.678-10.429,12.678-17.548,0-3.1-2.516-5.1-6.252-5.1-4.1,0-6.672,2.229-6.672,5.391v.794c0,.787-.427,1.148-1.221,1.148l-7.693-.287c-.721,0-1.221-.36-1.221-.861v-.794c0-8.674,6.9-14.679,17.041-14.679,9.922,0,16.327,5.612,16.327,14.012,0,11.937-12.878,12.01-12.878,18.556v1.294a1.1,1.1,0,0,1-1.221,1.221h-7.667a1.1,1.1,0,0,1-1.221-1.2Zm-.667,11.577a6.162,6.162,0,1,1,6.112,5.752,5.945,5.945,0,0,1-6.092-5.752Z" transform="translate(-95.91 -107.977)" fill="#e7e7e7"/>
        <path id="Path_27938" data-name="Path 27938" d="M350.2,73.225v-.981c0-5.051,6.392-5.271,6.392-8.868,0-1.561-1.274-2.582-3.163-2.582-2.068,0-3.376,1.128-3.376,2.729v.4c0,.4-.22.581-.621.581l-3.883-.147c-.367,0-.621-.18-.621-.434v-.4c0-4.4,3.49-7.413,8.614-7.413,5.011,0,8.247,2.836,8.247,7.086,0,6.005-6.506,6.065-6.506,9.341V73.2a.554.554,0,0,1-.621.614h-3.85a.547.547,0,0,1-.614-.594Zm-.327,5.852a3.116,3.116,0,1,1,3.109,2.9,3,3,0,0,1-3.109-2.9Z" transform="translate(-182.777 -52.133)" fill="#cfd8dc"/>
        <path id="Path_27939" data-name="Path 27939" d="M72.038,284.783a4.29,4.29,0,0,1-4.285-4.149l-.017-.516h.028a4.424,4.424,0,1,1,4.417,4.663h-.011Zm-3.244-3.751a3.291,3.291,0,0,0,3.352,2.749h.034a3.423,3.423,0,1,0-3.416-3.2Zm5.582-6.5c-.037,0-.075,0-.112-.005h-4.8a1.21,1.21,0,0,1-.95-.355,1.194,1.194,0,0,1-.339-.951v-1.208c0-3.712,2.525-5.481,4.752-7.042,1.775-1.244,3.308-2.318,3.308-4.135,0-1.67-1.375-2.749-3.5-2.749-2.282,0-3.757,1.153-3.757,2.936v.5a1.156,1.156,0,0,1-1.281,1.234H67.68l-4.889-.18a1.142,1.142,0,0,1-1.271-1.054v-.5a9.646,9.646,0,0,1,.832-4A8.991,8.991,0,0,1,64.7,253.9a12.3,12.3,0,0,1,8.177-2.715,11.852,11.852,0,0,1,7.891,2.576,8.759,8.759,0,0,1,3,6.851c0,4.628-2.895,6.633-5.221,8.244-1.661,1.151-2.973,2.06-2.973,3.572v.794a1.2,1.2,0,0,1-1.2,1.312Zm-4.955-1.005h4.9l.03,0a.2.2,0,0,0,.166-.057.2.2,0,0,0,.057-.166l0-.03v-.851c0-2.036,1.653-3.182,3.4-4.395,2.245-1.555,4.79-3.318,4.79-7.422,0-5.12-3.882-8.428-9.889-8.428a11.318,11.318,0,0,0-7.524,2.473,8.144,8.144,0,0,0-2.832,6.369v.484a.456.456,0,0,0,.281.07h.018l4.888.18c.272,0,.272-.065.272-.234v-.5a3.634,3.634,0,0,1,1.333-2.86,5.311,5.311,0,0,1,3.424-1.076c2.694,0,4.5,1.507,4.5,3.749,0,2.337-1.9,3.667-3.734,4.954-2.127,1.49-4.326,3.031-4.326,6.223v1.264l0,.03a.2.2,0,0,0,.056.165.2.2,0,0,0,.164.059Z" transform="translate(-31.74 -147.39)" fill="#484848"/>
        <path id="Path_27940" data-name="Path 27940" d="M161.741,103.983v-.847c0-4.377,5.545-4.571,5.545-7.687,0-1.334-1.1-2.235-2.742-2.235-1.795,0-2.929.974-2.929,2.362v.347c0,.347-.187.5-.534.5l-3.336-.127c-.314,0-.534-.153-.534-.374v-.347c0-3.81,3.023-6.426,7.46-6.426s7.079,2.455,7.079,6.139c0,5.231-5.638,5.265-5.638,8.127v.567a.48.48,0,0,1-.534.534h-3.336a.48.48,0,0,1-.5-.534Zm-.28,5.071a2.669,2.669,0,1,1,2.669,2.522,2.6,2.6,0,0,1-2.689-2.509Z" transform="translate(-131.111 -89.15)" fill="#484848"/>
        <path id="Path_27941" data-name="Path 27941" d="M312.067,386.227a3.1,3.1,0,0,1-3.047-2.521h-.033l-.026-.475a3.169,3.169,0,1,1,3.174,2.995Zm-2.108-3.287.008.249a2.092,2.092,0,0,0,2.1,2.038h.062a2.169,2.169,0,1,0-2.169-2.286Zm.264-3.758a.987.987,0,0,1-.983-1.075v-.821c0-2.633,1.849-3.928,3.335-4.969,1.186-.831,2.21-1.548,2.21-2.717,0-1.054-.88-1.735-2.242-1.735-1.476,0-2.429.731-2.429,1.862v.347a.956.956,0,0,1-1.034,1.007h-.019l-3.328-.126a.943.943,0,0,1-1.023-.88v-.347a6.51,6.51,0,0,1,2.239-5.02,8.6,8.6,0,0,1,5.72-1.905c4.649,0,7.653,2.608,7.653,6.645,0,3.264-2.03,4.669-3.661,5.8-1.226.848-1.977,1.414-1.977,2.323v.543a.982.982,0,0,1-.282.773.994.994,0,0,1-.773.291h-3.276A.988.988,0,0,1,310.224,379.182Zm2.319-12.318c1.909,0,3.242,1.125,3.242,2.735,0,1.69-1.34,2.629-2.636,3.537-1.43,1-2.909,2.037-2.909,4.15l0,.893.029-.005h3.418v-.609c0-1.48,1.17-2.289,2.408-3.146,1.588-1.1,3.23-2.235,3.23-4.975a5.226,5.226,0,0,0-1.741-4.079,7.351,7.351,0,0,0-4.912-1.566c-4.163,0-6.96,2.381-6.96,5.926v.226h.053l3.325.126h.026s0,0,0-.006v-.347a2.651,2.651,0,0,1,.974-2.088A3.812,3.812,0,0,1,312.543,366.864Z" transform="translate(-164.889 -244.677)" fill="#484848"/>
      </g>
      <g id="freepik--question-mark-1--inject-4" transform="translate(140.262 86.77)">
        <path id="Path_27944" data-name="Path 27944" d="M197.767,301.736v-6.592c0-33.923,42.95-35.364,42.95-59.545,0-10.5-8.541-17.348-21.232-17.348-13.912,0-22.686,7.566-22.686,18.3v2.669c0,2.669-1.468,3.91-4.15,3.91l-26.116-.981c-2.435,0-4.144-1.221-4.144-2.929v-2.669c0-29.532,23.427-49.783,57.836-49.783,33.676,0,55.381,19.03,55.381,47.588,0,40.508-43.684,40.755-43.684,62.961v4.4c0,2.669-1.468,4.144-4.15,4.144H201.917C199.228,305.879,197.767,304.418,197.767,301.736Zm-2.2,39.321c0-10.736,9.515-19.523,20.985-19.523,10.983,0,20.745,8.788,20.745,19.523s-9.782,19.49-20.985,19.49C204.833,360.546,195.572,351.765,195.572,341.056Z" transform="translate(-162.383 -186.77)" fill="#e7e7e7"/>
      </g>
    </g>
  </g>
</svg>
