<svg id="Download_on_the_App_Store_Badge_US-UK_RGB_blk_092917" xmlns="http://www.w3.org/2000/svg" width="106.996" height="35.998" viewBox="0 0 106.996 35.998">
  <g id="Group_3679" data-name="Group 3679">
    <g id="Group_3677" data-name="Group 3677">
      <path id="Path_27985" data-name="Path 27985" d="M98.479,0H7.547C7.273,0,7,.009,6.725.013A11.742,11.742,0,0,0,4.933.172a5.933,5.933,0,0,0-1.7.564A5.758,5.758,0,0,0,1.786,1.8,5.631,5.631,0,0,0,.733,3.256,5.968,5.968,0,0,0,.174,4.969a11.768,11.768,0,0,0-.16,1.8Q0,7.186,0,7.6V28.4c0,.279,0,.55.014.83a11.767,11.767,0,0,0,.16,1.8,5.956,5.956,0,0,0,.559,1.714A5.585,5.585,0,0,0,1.786,34.2a5.612,5.612,0,0,0,1.447,1.061,5.965,5.965,0,0,0,1.7.568,11.955,11.955,0,0,0,1.792.159c.276.006.548.01.822.01h91.9c.272,0,.552,0,.824-.01a11.8,11.8,0,0,0,1.788-.159,6.057,6.057,0,0,0,1.706-.568,5.615,5.615,0,0,0,1.446-1.061,5.754,5.754,0,0,0,1.057-1.453,5.971,5.971,0,0,0,.554-1.714,12.232,12.232,0,0,0,.166-1.8V28.4c.007-.327.007-.652.007-.984V8.582c0-.33,0-.657-.007-.983V6.77a12.232,12.232,0,0,0-.166-1.8,5.983,5.983,0,0,0-.554-1.713,5.8,5.8,0,0,0-2.5-2.52,6.024,6.024,0,0,0-1.706-.564,11.59,11.59,0,0,0-1.788-.159C100,.009,99.721,0,99.448,0Z" fill="#a6a6a6"/>
      <path id="Path_27986" data-name="Path 27986" d="M7.643,35.3c-.272,0-.538,0-.809-.01a11.272,11.272,0,0,1-1.671-.147,5.237,5.237,0,0,1-1.481-.493,4.835,4.835,0,0,1-1.249-.915,4.787,4.787,0,0,1-.912-1.257,5.173,5.173,0,0,1-.485-1.491A11.244,11.244,0,0,1,.886,29.3c-.006-.19-.013-.822-.013-.822V7.687s.008-.622.013-.8A11.2,11.2,0,0,1,1.034,5.2,5.2,5.2,0,0,1,1.52,3.7a4.835,4.835,0,0,1,.908-1.258,4.978,4.978,0,0,1,1.254-.92,5.183,5.183,0,0,1,1.478-.49A11.181,11.181,0,0,1,6.837.886L7.643.875H99.528l.816.011a11,11,0,0,1,1.662.146,5.285,5.285,0,0,1,1.494.493A5.018,5.018,0,0,1,105.659,3.7a5.211,5.211,0,0,1,.479,1.484,11.771,11.771,0,0,1,.155,1.7c0,.255,0,.529,0,.8.007.337.007.659.007.983V27.506c0,.327,0,.646-.007.968v.837a11.528,11.528,0,0,1-.153,1.668,5.189,5.189,0,0,1-.483,1.5,4.931,4.931,0,0,1-.908,1.247,4.841,4.841,0,0,1-1.251.92,5.217,5.217,0,0,1-1.491.495,11.142,11.142,0,0,1-1.671.147c-.262.006-.536.01-.8.01h-.969Z" transform="translate(-0.088 -0.087)" fill="#282b2f"/>
    </g>
    <g id="_Group_" data-name="&lt;Group&gt;" transform="translate(8.966 7.848)">
      <g id="_Group_2" data-name="&lt;Group&gt;">
        <g id="_Group_3" data-name="&lt;Group&gt;">
          <path id="_Path_" data-name="&lt;Path&gt;" d="M23.277,19.668A4.455,4.455,0,0,1,25.4,15.931a4.554,4.554,0,0,0-3.589-1.942c-1.51-.159-2.974.9-3.743.9S16.1,14,14.823,14.027A4.779,4.779,0,0,0,10.8,16.486c-1.739,3.014-.442,7.442,1.224,9.878.833,1.193,1.807,2.525,3.082,2.478,1.247-.052,1.713-.8,3.218-.8s1.929.8,3.229.766c1.338-.022,2.181-1.2,2.986-2.4A9.869,9.869,0,0,0,25.9,23.627a4.3,4.3,0,0,1-2.623-3.959Z" transform="translate(-9.972 -9.246)" fill="#fff"/>
          <path id="_Path_2" data-name="&lt;Path&gt;" d="M21.71,11.862a4.388,4.388,0,0,0,1-3.142,4.456,4.456,0,0,0-2.884,1.494A4.175,4.175,0,0,0,18.8,13.239a3.684,3.684,0,0,0,2.91-1.377Z" transform="translate(-10.861 -8.72)" fill="#fff"/>
        </g>
      </g>
      <g id="Group_3678" data-name="Group 3678" transform="translate(21.392 8.236)">
        <path id="Path_27987" data-name="Path 27987" d="M41.508,26.233H37.252L36.23,29.254h-1.8l4.031-11.176h1.873l4.031,11.176H42.529ZM37.693,24.84h3.374L39.4,19.94h-.047Z" transform="translate(-34.427 -17.892)" fill="#fff"/>
        <path id="Path_27988" data-name="Path 27988" d="M54.3,25.507c0,2.532-1.354,4.159-3.4,4.159a2.759,2.759,0,0,1-2.561-1.426H48.3v4.036H46.631V21.433h1.617v1.355h.031a2.887,2.887,0,0,1,2.592-1.441C52.938,21.347,54.3,22.982,54.3,25.507Zm-1.718,0c0-1.65-.852-2.734-2.151-2.734-1.277,0-2.136,1.107-2.136,2.734s.859,2.741,2.136,2.741C51.73,28.249,52.582,27.172,52.582,25.507Z" transform="translate(-35.658 -18.219)" fill="#fff"/>
        <path id="Path_27989" data-name="Path 27989" d="M64.265,25.507c0,2.532-1.354,4.159-3.4,4.159A2.759,2.759,0,0,1,58.3,28.24h-.039v4.036H56.6V21.433h1.617v1.355h.031a2.887,2.887,0,0,1,2.592-1.441C62.9,21.347,64.265,22.982,64.265,25.507Zm-1.718,0c0-1.65-.852-2.734-2.151-2.734-1.277,0-2.136,1.107-2.136,2.734s.859,2.741,2.136,2.741C61.7,28.248,62.547,27.171,62.547,25.507Z" transform="translate(-36.663 -18.219)" fill="#fff"/>
        <path id="Path_27990" data-name="Path 27990" d="M71.519,26.12c.124,1.108,1.2,1.836,2.669,1.836,1.408,0,2.422-.728,2.422-1.727,0-.867-.611-1.387-2.058-1.743L73.1,24.137c-2.05-.5-3-1.455-3-3.013,0-1.928,1.679-3.253,4.063-3.253,2.359,0,3.977,1.325,4.031,3.253H76.51c-.1-1.115-1.022-1.789-2.368-1.789s-2.267.681-2.267,1.673c0,.79.588,1.255,2.028,1.611l1.23.3c2.291.542,3.243,1.463,3.243,3.1,0,2.091-1.664,3.4-4.311,3.4-2.476,0-4.148-1.279-4.256-3.3Z" transform="translate(-37.995 -17.871)" fill="#fff"/>
        <path id="Path_27991" data-name="Path 27991" d="M83.025,19.3v1.928h1.548v1.325H83.025v4.492c0,.7.31,1.023.99,1.023a5.216,5.216,0,0,0,.55-.039v1.317a4.585,4.585,0,0,1-.928.077c-1.648,0-2.291-.62-2.291-2.2v-4.67H80.163V21.228h1.184V19.3Z" transform="translate(-39.039 -18.014)" fill="#fff"/>
        <path id="Path_27992" data-name="Path 27992" d="M86.065,25.506c0-2.564,1.509-4.175,3.861-4.175s3.862,1.611,3.862,4.175-1.494,4.175-3.862,4.175S86.065,28.077,86.065,25.506Zm6.02,0c0-1.759-.805-2.8-2.159-2.8s-2.158,1.046-2.158,2.8.8,2.8,2.158,2.8S92.085,27.276,92.085,25.506Z" transform="translate(-39.634 -18.217)" fill="#fff"/>
        <path id="Path_27993" data-name="Path 27993" d="M96.186,21.433H97.78V22.82h.039a1.942,1.942,0,0,1,1.958-1.472,2.575,2.575,0,0,1,.573.062v1.564a2.334,2.334,0,0,0-.751-.1,1.685,1.685,0,0,0-1.741,1.875v4.833H96.186Z" transform="translate(-40.655 -18.219)" fill="#fff"/>
        <path id="Path_27994" data-name="Path 27994" d="M108.561,27.186c-.225,1.479-1.664,2.494-3.5,2.494-2.368,0-3.838-1.588-3.838-4.136s1.478-4.213,3.768-4.213c2.252,0,3.669,1.549,3.669,4.019v.573H102.9v.1a2.121,2.121,0,0,0,2.19,2.308,1.842,1.842,0,0,0,1.88-1.146Zm-5.649-2.432h4.07a1.959,1.959,0,0,0-2-2.068,2.062,2.062,0,0,0-2.073,2.068Z" transform="translate(-41.162 -18.217)" fill="#fff"/>
      </g>
    </g>
  </g>
  <g id="_Group_4" data-name="&lt;Group&gt;" transform="translate(31.477 7.593)">
    <g id="Group_3680" data-name="Group 3680">
      <path id="Path_27995" data-name="Path 27995" d="M37.609,8.73a2.375,2.375,0,0,1,2.524,2.67,2.386,2.386,0,0,1-2.525,2.7H35.671V8.73Zm-1.1,4.611h1.012A1.688,1.688,0,0,0,39.29,11.41a1.692,1.692,0,0,0-1.769-1.92H36.5Z" transform="translate(-35.671 -8.466)" fill="#fff"/>
      <path id="Path_27996" data-name="Path 27996" d="M41.68,12.211a1.918,1.918,0,1,1,3.819,0,1.919,1.919,0,1,1-3.819,0Zm3,0c0-.878-.394-1.392-1.086-1.392s-1.085.514-1.085,1.392.391,1.4,1.085,1.4S44.68,13.1,44.68,12.211Z" transform="translate(-36.276 -8.604)" fill="#fff"/>
      <path id="Path_27997" data-name="Path 27997" d="M51.069,14.247H50.24l-.84-2.984h-.06l-.833,2.985h-.821L46.57,10.195h.81l.725,3.092h.06L49,10.195h.767l.832,3.092h.063l.722-3.092h.8Z" transform="translate(-36.77 -8.613)" fill="#fff"/>
      <path id="Path_27998" data-name="Path 27998" d="M53.854,10.186h.769v.644h.06a1.212,1.212,0,0,1,1.208-.722,1.318,1.318,0,0,1,1.4,1.507v2.623h-.8V11.816c0-.651-.283-.975-.874-.975a.929.929,0,0,0-.967,1.027v2.371h-.8Z" transform="translate(-37.504 -8.604)" fill="#fff"/>
      <path id="Path_27999" data-name="Path 27999" d="M59.094,8.437h.8v5.635h-.8Z" transform="translate(-38.033 -8.437)" fill="#fff"/>
      <path id="Path_28000" data-name="Path 28000" d="M61.217,12.211a1.918,1.918,0,1,1,3.819,0,1.919,1.919,0,1,1-3.819,0Zm3,0c0-.878-.394-1.392-1.086-1.392s-1.085.514-1.085,1.392.391,1.4,1.085,1.4S64.217,13.1,64.217,12.211Z" transform="translate(-38.246 -8.604)" fill="#fff"/>
      <path id="Path_28001" data-name="Path 28001" d="M66.4,13.093c0-.729.543-1.15,1.506-1.21L69,11.82v-.35c0-.428-.283-.67-.829-.67-.446,0-.755.164-.844.45h-.774c.082-.7.736-1.143,1.654-1.143,1.015,0,1.588.506,1.588,1.362v2.769H69.03v-.57h-.063a1.362,1.362,0,0,1-1.216.636,1.224,1.224,0,0,1-1.35-1.213Zm2.6-.346v-.339l-.989.063c-.558.037-.81.227-.81.584s.316.577.751.577A.955.955,0,0,0,69,12.746Z" transform="translate(-38.77 -8.604)" fill="#fff"/>
      <path id="Path_28002" data-name="Path 28002" d="M71.348,12.044c0-1.281.658-2.092,1.681-2.092a1.334,1.334,0,0,1,1.242.711h.06V8.437h.8v5.635h-.766v-.64H74.3a1.4,1.4,0,0,1-1.271.707C72,14.138,71.348,13.327,71.348,12.044Zm.825,0c0,.86.4,1.377,1.082,1.377s1.09-.525,1.09-1.373-.421-1.377-1.09-1.377S72.173,11.192,72.173,12.044Z" transform="translate(-39.269 -8.437)" fill="#fff"/>
      <path id="Path_28003" data-name="Path 28003" d="M79.229,12.211a1.918,1.918,0,1,1,3.819,0,1.919,1.919,0,1,1-3.819,0Zm3,0c0-.878-.394-1.392-1.086-1.392s-1.085.514-1.085,1.392.391,1.4,1.085,1.4,1.083-.518,1.083-1.4Z" transform="translate(-40.062 -8.604)" fill="#fff"/>
      <path id="Path_28004" data-name="Path 28004" d="M84.669,10.186h.769v.644h.06a1.212,1.212,0,0,1,1.208-.722,1.318,1.318,0,0,1,1.4,1.507v2.623h-.8V11.816c0-.651-.283-.975-.874-.975a.929.929,0,0,0-.967,1.027v2.371h-.8Z" transform="translate(-40.612 -8.604)" fill="#fff"/>
      <path id="Path_28005" data-name="Path 28005" d="M93.353,9.074V10.1h.877v.674h-.877v2.084c0,.425.175.61.573.61a2.665,2.665,0,0,0,.3-.018v.666a2.619,2.619,0,0,1-.435.041c-.889,0-1.243-.313-1.243-1.094V10.775h-.643V10.1h.643V9.074Z" transform="translate(-41.342 -8.501)" fill="#fff"/>
      <path id="Path_28006" data-name="Path 28006" d="M95.7,8.437h.8V10.67h.063A1.246,1.246,0,0,1,97.8,9.944a1.335,1.335,0,0,1,1.394,1.511v2.616h-.8V11.652c0-.647-.3-.975-.866-.975A.946.946,0,0,0,96.5,11.7v2.367h-.8Z" transform="translate(-41.725 -8.437)" fill="#fff"/>
      <path id="Path_28007" data-name="Path 28007" d="M104.353,13.145a1.644,1.644,0,0,1-1.754,1.172,1.84,1.84,0,0,1-1.87-2.092,1.869,1.869,0,0,1,1.867-2.117c1.127,0,1.806.77,1.806,2.043v.279h-2.859v.045a1.071,1.071,0,0,0,1.078,1.161.97.97,0,0,0,.963-.491Zm-2.811-1.306h2.045a.977.977,0,0,0-1-1.05,1.036,1.036,0,0,0-1.048,1.05Z" transform="translate(-42.23 -8.604)" fill="#fff"/>
    </g>
  </g>
</svg>
