<svg xmlns="http://www.w3.org/2000/svg" width="122.801" height="36.8" viewBox="0 0 122.801 36.8">
  <g id="appstore" transform="translate(0.4 0.4)">
    <path id="Path_1" d="M122,32.4a3.546,3.546,0,0,1-3.513,3.6H3.513A3.566,3.566,0,0,1,0,32.4V3.6A3.566,3.566,0,0,1,3.513,0H118.487A3.566,3.566,0,0,1,122,3.6Z" fill="#282b2f" stroke="#a6a6a6" stroke-width="0.8"/>
    <g id="Group_10" transform="translate(36.949 15.274)">
      <path id="Path_6" d="M7.352,10.682H3L1.92,13.593H0L4.261,2.7h1.8l4.381,10.893H8.432ZM3.541,9.242H6.812L5.642,6.151c-.18-.45-.27-.9-.45-1.44-.18.45-.27.9-.45,1.44Z" transform="translate(0 -1.89)" fill="#fff"/>
      <path id="Path_7" d="M37.29,13.691c0-.66-.03-1.32-.09-2.011h1.74a3.693,3.693,0,0,1,.09.99,3.13,3.13,0,0,1,2.461-1.17,3.365,3.365,0,0,1,1.53.45,2.939,2.939,0,0,1,1.08,1.26,5,5,0,0,1,.45,2.281,6.874,6.874,0,0,1-.45,2.461,4.413,4.413,0,0,1-1.35,1.53,3.586,3.586,0,0,1-1.981.54,4.833,4.833,0,0,1-1.62-.27v3.361l-1.8.18-.06-9.6Zm4.891,4.081a4,4,0,0,0,.54-2.281,3.95,3.95,0,0,0-.45-2.011,1.856,1.856,0,0,0-2.281-.27,2.982,2.982,0,0,0-.9.72v4.351a1.181,1.181,0,0,0,.63.18c.27,0,.45.09.72.09a1.817,1.817,0,0,0,1.741-.779Z" transform="translate(-26.037 -8.049)" fill="#fff"/>
      <path id="Path_8" d="M65.69,13.691c0-.66-.03-1.32-.09-2.011h1.71a3.693,3.693,0,0,1,.09.99,3.13,3.13,0,0,1,2.461-1.17,3.365,3.365,0,0,1,1.53.45,2.939,2.939,0,0,1,1.08,1.26,5,5,0,0,1,.45,2.281,6.874,6.874,0,0,1-.45,2.461,4.413,4.413,0,0,1-1.35,1.53,3.586,3.586,0,0,1-1.981.54,4.833,4.833,0,0,1-1.62-.27v3.361l-1.8.18Zm4.921,4.081a4,4,0,0,0,.54-2.281,3.95,3.95,0,0,0-.45-2.011,1.622,1.622,0,0,0-1.26-.63,1.889,1.889,0,0,0-.99.27,2.982,2.982,0,0,0-.9.72v4.351a1.181,1.181,0,0,0,.63.18c.27,0,.45.09.72.09a1.593,1.593,0,0,0,1.71-.689Z" transform="translate(-45.914 -8.049)" fill="#fff"/>
      <path id="Path_9" d="M96.454,12.766a4.062,4.062,0,0,1-1.831-1.921,6.07,6.07,0,0,1-.63-2.911,6.5,6.5,0,0,1,.72-3.091,5.157,5.157,0,0,1,2.011-1.921,6.07,6.07,0,0,1,2.911-.63c.6.03,1.23.09,1.831.18a8.557,8.557,0,0,1,1.62.54l-.45,1.44a6.55,6.55,0,0,0-2.821-.72,4.682,4.682,0,0,0-2.011.45,4.136,4.136,0,0,0-1.35,1.44A5.944,5.944,0,0,0,96,7.905a5.007,5.007,0,0,0,.36,2.1,3.093,3.093,0,0,0,1.17,1.44,3.389,3.389,0,0,0,2.011.54,4.383,4.383,0,0,0,1.08-.09c.36-.09.72-.18.99-.27V9.435H99.1V8h4.351v4.531a7.483,7.483,0,0,1-2.011.63,7.553,7.553,0,0,1-2.011.27,5.212,5.212,0,0,1-2.97-.665Z" transform="translate(-65.785 -1.603)" fill="#fff"/>
      <path id="Path_10" d="M135.117,19.6a3.3,3.3,0,0,1-.09-1.08,3.467,3.467,0,0,1-1.08.9,2.811,2.811,0,0,1-1.53.36,2.971,2.971,0,0,1-1.26-.27,1.97,1.97,0,0,1-.9-.81,2.76,2.76,0,0,1-.36-1.35,2.457,2.457,0,0,1,.81-1.921,4.552,4.552,0,0,1,2.821-.72,5.818,5.818,0,0,1,1.44.09v-.18a2.307,2.307,0,0,0-.45-1.53,1.814,1.814,0,0,0-1.26-.45,9.1,9.1,0,0,0-1.26.18,3.948,3.948,0,0,0-1.17.45l-.27-1.35a10.572,10.572,0,0,1,1.26-.45,8.282,8.282,0,0,1,1.71-.18,3.848,3.848,0,0,1,1.831.36,2.287,2.287,0,0,1,1.17,1.08,4.287,4.287,0,0,1,.45,2.1V18.1a13.086,13.086,0,0,0,.09,1.528Zm-1.08-1.44a2.657,2.657,0,0,0,.9-.72V15.91a8.9,8.9,0,0,0-1.26-.09,2.707,2.707,0,0,0-1.62.36,1.239,1.239,0,0,0-.45.99,1.03,1.03,0,0,0,.36.9,1.238,1.238,0,0,0,.9.27,1.978,1.978,0,0,0,1.169-.179Z" transform="translate(-90.914 -7.899)" fill="#fff"/>
      <path id="Path_11" d="M158.2,9.813V.18L160.031,0V9.453a1.508,1.508,0,0,0,.18.72c.09.18.27.18.54.18a1.2,1.2,0,0,0,.45-.09l.18,1.35-.63.18c-.27,0-.45.09-.72.09C158.83,11.883,158.2,11.163,158.2,9.813Z" transform="translate(-110.726)" fill="#fff"/>
      <path id="Path_12" d="M173.6,9.813V.18L175.431,0V9.453a1.508,1.508,0,0,0,.18.72c.09.18.27.18.54.18a1.2,1.2,0,0,0,.45-.09l.18,1.35-.63.18c-.27,0-.45.09-.72.09C174.26,11.883,173.6,11.163,173.6,9.813Z" transform="translate(-121.505)" fill="#fff"/>
      <path id="Path_13" d="M193.472,16.151h-5.251c.09,1.71.9,2.551,2.461,2.551a7.89,7.89,0,0,0,1.17-.18,7.563,7.563,0,0,0,1.17-.36l.36,1.26a6.8,6.8,0,0,1-3.091.63,5.5,5.5,0,0,1-2.191-.45,3.879,3.879,0,0,1-1.35-1.35,5.5,5.5,0,0,1-.45-2.191,5.944,5.944,0,0,1,.45-2.281,2.648,2.648,0,0,1,1.35-1.44,3.631,3.631,0,0,1,3.811,0,3.211,3.211,0,0,1,1.17,1.44,4.6,4.6,0,0,1,.36,2.011v.36Zm-1.8-1.17a2.284,2.284,0,0,0-.45-1.44,1.286,1.286,0,0,0-1.17-.45,1.631,1.631,0,0,0-1.17.45,3.266,3.266,0,0,0-.63,1.44h3.421Z" transform="translate(-130.394 -8.259)" fill="#fff"/>
      <path id="Path_14" d="M215.19,13.454c0-.66-.03-1.32-.09-2.011h1.71c0,.18.09.45.09.81,0,.27.09.54.09.72a4.831,4.831,0,0,1,.63-.9,2.374,2.374,0,0,1,.72-.63,1.66,1.66,0,0,1,.9-.27,1.5,1.5,0,0,1,.72.09l-.27,1.62a1.159,1.159,0,0,0-.63-.09,1.809,1.809,0,0,0-1.17.36,3.77,3.77,0,0,0-.99,1.08V19.4h-1.8v-6h.09Z" transform="translate(-150.552 -7.813)" fill="#fff"/>
      <path id="Path_15" d="M233.93,23.813l-.63-.18.36-1.35.45.09c.18,0,.36.09.54.09a2.022,2.022,0,0,0,1.831-1.53l.09-.27-3-8.162h2.011l1.53,4.531a13.169,13.169,0,0,1,.45,1.8c.18-.54.27-1.17.45-1.71l1.53-4.621h1.921l-3,8.162a7.49,7.49,0,0,1-.9,1.921,4.448,4.448,0,0,1-1.17,1.08,3.123,3.123,0,0,1-1.62.36A1.829,1.829,0,0,0,233.93,23.813Z" transform="translate(-163.29 -8.749)" fill="#fff"/>
    </g>
    <g id="Group_11" transform="translate(37.361 5.472)">
      <path id="Path_16" d="M0,0H3.361l-.09.81H.99V2.34H3.181v.72H.99V4.8H3.361l-.09.81H0Z" transform="translate(0 0.004)" fill="#fff"/>
      <path id="Path_17" d="M14.391,2.821,12.65,0h1.08L14.9,2.1,16.161,0h1.08l-1.71,2.731,1.921,2.911h-1.08l-1.35-2.281L13.67,5.642H12.5Z" transform="translate(-8.749 0.004)" fill="#fff"/>
      <path id="Path_18" d="M30.99-.009h1.53a2.61,2.61,0,0,1,1.62.45,1.54,1.54,0,0,1,.54,1.26,1.889,1.889,0,0,1-.27.99,2.374,2.374,0,0,1-.72.63,1.949,1.949,0,0,1-1.08.18,2.96,2.96,0,0,1-.72-.09V5.6H30.9V-.009Zm2.431,2.551a1,1,0,0,0,.27-.81c0-.36-.09-.63-.36-.72a1.238,1.238,0,0,0-.9-.27h-.54v2.01a1.7,1.7,0,0,1,.54.09C32.971,2.9,33.241,2.812,33.421,2.542Z" transform="translate(-21.627 0.013)" fill="#fff"/>
      <path id="Path_19" d="M46.9,0h.99V4.8h2.371l-.09.9H46.9Z" transform="translate(-32.826 0.004)" fill="#fff"/>
      <path id="Path_20" d="M59.95,5.491a1.932,1.932,0,0,1-.9-.99,3.47,3.47,0,0,1-.36-1.53,2.693,2.693,0,0,1,.36-1.53,2.113,2.113,0,0,1,.99-.99A2.811,2.811,0,0,1,61.57.09a2.407,2.407,0,0,1,1.44.36,1.932,1.932,0,0,1,.9.99,4.072,4.072,0,0,1,.36,1.44,3,3,0,0,1-.36,1.62,2.113,2.113,0,0,1-.99.99,2.751,2.751,0,0,1-1.53.36,2.517,2.517,0,0,1-1.44-.359Zm2.641-.72a2.373,2.373,0,0,0,.63-.72,6.764,6.764,0,0,0,.18-1.08,3.265,3.265,0,0,0-.18-1.08,1.1,1.1,0,0,0-.54-.72,2.006,2.006,0,0,0-2.011,0,1.864,1.864,0,0,0-.63.81,2.225,2.225,0,0,0-.18,1.08,3.265,3.265,0,0,0,.18,1.08,1.249,1.249,0,0,0,.63.72,1.968,1.968,0,0,0,.99.27,4.977,4.977,0,0,0,.931-.36Z" transform="translate(-41.074 -0.056)" fill="#fff"/>
      <path id="Path_21" d="M81.4,0h1.831a2.128,2.128,0,0,1,1.44.36,1.213,1.213,0,0,1,.54,1.08,3.539,3.539,0,0,1-.18.81,1.075,1.075,0,0,1-.45.57,1.7,1.7,0,0,1-.54.36l1.71,2.551h-1.17L83.14,3.451h-.72V5.732h-.99V0Zm1.53,2.731a1.181,1.181,0,0,0,.63-.18.9.9,0,0,0,.45-.36,1.908,1.908,0,0,0,.18-.54.817.817,0,0,0-.27-.63,1.88,1.88,0,0,0-.81-.18h-.72v1.92Z" transform="translate(-56.973 0.004)" fill="#fff"/>
      <path id="Path_22" d="M98.3,0h3.361l-.09.81H99.29V2.34h2.191v.72H99.29V4.8h2.371l-.09.9H98.3Z" transform="translate(-68.802 0.004)" fill="#fff"/>
      <path id="Path_23" d="M121.6,0h.99V5.732h-.99Z" transform="translate(-85.11 0.004)" fill="#fff"/>
      <path id="Path_24" d="M129.41,1.11H127.7l.09-.81h4.441l-.09.81h-1.65V6h-1.08Z" transform="translate(-89.379 -0.206)" fill="#fff"/>
      <path id="Path_25" d="M154.05,5.491a1.932,1.932,0,0,1-.9-.99,3.47,3.47,0,0,1-.36-1.53,2.693,2.693,0,0,1,.36-1.53,2.114,2.114,0,0,1,.99-.99,2.811,2.811,0,0,1,1.53-.36,2.407,2.407,0,0,1,1.44.36,1.932,1.932,0,0,1,.9.99,4.072,4.072,0,0,1,.36,1.44,3,3,0,0,1-.36,1.62,2.113,2.113,0,0,1-.99.99,2.751,2.751,0,0,1-1.53.36,2.257,2.257,0,0,1-1.44-.36Zm2.551-.72a2.373,2.373,0,0,0,.63-.72,4.519,4.519,0,0,0,.18-1.08,3.265,3.265,0,0,0-.18-1.08,1.1,1.1,0,0,0-.54-.72,2.006,2.006,0,0,0-2.011,0,1.864,1.864,0,0,0-.63.81,2.225,2.225,0,0,0-.18,1.08,3.265,3.265,0,0,0,.18,1.08,1.249,1.249,0,0,0,.63.72,1.968,1.968,0,0,0,.99.27,2.724,2.724,0,0,0,.93-.36Z" transform="translate(-106.936 -0.056)" fill="#fff"/>
      <path id="Path_26" d="M175.2,0h1.08l2.82,4.351V0h.9V5.732h-1.08L176.1,1.29V5.732h-.9Z" transform="translate(-122.625 0.004)" fill="#fff"/>
    </g>
    <g id="Group_12" transform="translate(6.879 5.473)">
      <g id="形状_1_拷贝_25_32_">
        <g id="Group_5">
          <path id="Path_27" d="M17.255,0H6.722C1.831,0,0,1.8,0,6.722V17.165c0,4.891,1.831,6.722,6.722,6.722H17.165c4.891,0,6.722-1.831,6.722-6.722V6.722C23.977,1.8,22.146,0,17.255,0Z" fill="#c8102e" fill-rule="evenodd"/>
        </g>
      </g>
      <path id="Path_28" d="M11.081,39.9h.63v3.181h-.63v-1.26H9.73v1.26H9.1V39.9h.63v1.26h1.44V39.9Zm3.631,1.831c0,.54-.27.81-.72.81s-.72-.27-.72-.81v-1.8h-.63v1.8a1.194,1.194,0,0,0,1.35,1.35,1.3,1.3,0,0,0,1.35-1.44V39.93h-.63Zm7.352.36-.72-2.191H20.8l-.72,2.191L19.45,39.9h-.63l1.08,3.181h.54l.72-2.1.72,2.1h.54L23.5,39.9h-.63Zm2.461-.36h1.17v-.54h-1.17v-.66h1.62V39.9H23.864v3.091h2.371v-.54h-1.71Zm2.551,1.26h.63V39.9h-.63Zm-10.443-.63-.27.63h-.63l1.35-3.091h.54l1.35,3.091h-.63l-.27-.63Zm.18-.54h.99l-.45-1.08Z" transform="translate(-6.369 -27.927)" fill="#fff"/>
      <path id="Path_29" d="M30.591,17.291A4.048,4.048,0,0,1,26.6,13.3h.54a3.453,3.453,0,0,0,6.9.21v-.18h.54a3.983,3.983,0,0,1-3.989,3.961Z" transform="translate(-18.618 -9.309)" fill="#fff"/>
    </g>
  </g>
</svg>
