<svg xmlns="http://www.w3.org/2000/svg" width="36" height="36" viewBox="0 0 36 36">
  <g id="Group_1290" data-name="Group 1290" transform="translate(-24 -53)">
    <circle id="Ellipse_88" data-name="Ellipse 88" cx="18" cy="18" r="18" transform="translate(24 53)" fill="#fafafa"/>
    <g id="notifications_black_24dp_1_" data-name="notifications_black_24dp (1)" transform="translate(28 57)">
      <path id="Path_7932" data-name="Path 7932" d="M0,0H28V28H0Z" fill="none"/>
      <path id="Path_7933" data-name="Path 7933" d="M13.264,25.25A2.34,2.34,0,0,0,15.6,22.917H10.931A2.333,2.333,0,0,0,13.264,25.25Zm7-7V12.417c0-3.582-1.913-6.58-5.25-7.373V4.25a1.75,1.75,0,1,0-3.5,0v.793c-3.348.793-5.25,3.78-5.25,7.373V18.25l-1.505,1.5a1.167,1.167,0,0,0,.817,2H20.941a1.17,1.17,0,0,0,.828-2Z" transform="translate(0.736 0.417)" fill="#e30b1c"/>
    </g>
  </g>
</svg>
