<svg id="Component_54_4" data-name="Component 54 – 4" xmlns="http://www.w3.org/2000/svg" width="24" height="24" viewBox="0 0 24 24">
  <rect id="Rectangle_290" data-name="Rectangle 290" width="24" height="24" rx="2" fill="#169a53"/>
  <g id="Group_3147" data-name="Group 3147" transform="translate(-967.444 293.082)">
    <path id="Path_3625" data-name="Path 3625" d="M978.948-273.045a5.037,5.037,0,0,1-2.362-.539,3.946,3.946,0,0,1-1.624-1.565,4.879,4.879,0,0,1-.59-2.472,7.565,7.565,0,0,1,3-5.875,1.894,1.894,0,0,1-.915-.59,1.528,1.528,0,0,1-.369-1.033,2.394,2.394,0,0,1,.31-1.085,7.286,7.286,0,0,1,1.136-1.483,7.251,7.251,0,0,1,1.137-1,1.962,1.962,0,0,1,1.122-.362,1.064,1.064,0,0,1,.723.243.778.778,0,0,1,.281.612.871.871,0,0,1-.414.827l-.133-.015a1.278,1.278,0,0,0-.945-.339,1.85,1.85,0,0,0-1.166.376,1.105,1.105,0,0,0-.487.893.887.887,0,0,0,.517.8,2.354,2.354,0,0,0,1.166.288,2.282,2.282,0,0,0,.362-.03,1.828,1.828,0,0,0,.464-.162,7.638,7.638,0,0,0,.738-.421q.457-.288,1.21-.8l.192.162a2.117,2.117,0,0,1-.207.421,4.269,4.269,0,0,1-.354.509,1.276,1.276,0,0,1-.325.31,27.286,27.286,0,0,0-2.93,1.845,7.636,7.636,0,0,0-1.934,1.978,4.444,4.444,0,0,0-.686,2.465,3.248,3.248,0,0,0,.495,1.8,3.314,3.314,0,0,0,1.38,1.2,4.7,4.7,0,0,0,2.066.428,6.335,6.335,0,0,0,3.624-1.018,8.348,8.348,0,0,0,2.635-3.188l.457.133a16.86,16.86,0,0,1-1.336,2.65,11.028,11.028,0,0,1-1.7,2.126,7.2,7.2,0,0,1-2.074,1.409A5.984,5.984,0,0,1,978.948-273.045Z" transform="translate(0 0)" fill="#fff"/>
  </g>
</svg>
