<?xml version="1.0" encoding="UTF-8"?>
<svg width="108px" height="34px" viewBox="0 0 108 34" version="1.1" xmlns="http://www.w3.org/2000/svg" xmlns:xlink="http://www.w3.org/1999/xlink">
    <!-- Generator: Sketch 61.2 (89653) - https://sketch.com -->
    <title>Waseet Logo En Red@1</title>
    <desc>Created with Sketch.</desc>
    <defs>
        <polygon id="path-1" points="0.510600104 0.353010178 13.8127494 0.353010178 13.8127494 21.9677678 0.510600104 21.9677678"></polygon>
        <polygon id="path-3" points="0.467341751 0.0308144617 6.25274973 0.0308144617 6.25274973 9.43305444 0.467341751 9.43305444"></polygon>
    </defs>
    <g id="New-Design" stroke="none" stroke-width="1" fill="none" fill-rule="evenodd">
        <g id="Waseet-Logo-En-Red">
            <path d="M8.06040865,20.5778781 C7.72335866,21.7950381 6.45768872,22.506938 5.23926877,22.167998 C4.02147882,21.8277981 3.31083886,20.5646481 3.64788884,19.3474882 L8.31996864,2.65500888 C8.65953862,1.43910894 10.0423886,0.606878974 11.2381285,0.636488972 L13.6270884,0.636488972 L8.06040865,20.5778781 Z" id="Fill-1" fill="#E30B1C"></path>
            <path d="M14.8784574,20.5778781 C14.5401474,21.7950381 13.2769974,22.506938 12.0560575,22.167998 C10.8382675,21.8277981 10.1263676,20.5646481 10.4671975,19.3474882 L15.1392773,2.65500888 C15.4750673,1.43910894 16.8604373,0.606878974 18.0555472,0.636488972 L20.4476571,0.636488972 L14.8784574,20.5778781 Z" id="Fill-3" fill="#E30B1C"></path>
            <path d="M21.6973881,20.5778781 C21.3552981,21.7950381 20.0934081,22.506938 18.8756182,22.167998 C17.6546782,21.8277981 16.9440383,20.5646481 17.2810882,19.3474882 L21.953168,2.65500888 C22.295258,1.43910894 23.675588,0.606878974 24.8738479,0.636488972 L27.2653278,0.636488972 L21.6973881,20.5778781 Z" id="Fill-5" fill="#E30B1C"></path>
            <path d="M4.4978848,8.94379461 C4.15957482,10.1634746 2.89516487,10.8747445 1.67674493,10.5364345 C0.45895498,10.1956046 -0.255464989,8.93245461 0.0853649963,7.71214466 L1.51168493,2.78428488 C1.85377492,1.56712493 2.89831487,0.635354972 4.5067048,0.635354972 L6.9296847,0.630314973 L4.4978848,8.94379461 Z" id="Fill-7" fill="#E30B1C"></path>
            <path d="M28.7932037,16.8439943 C28.7932037,15.9884543 29.4635237,15.3112043 30.1269137,15.2746643 L30.1269137,15.2797043 L37.3334834,15.2797043 L36.4294334,18.5361742 L30.0859637,18.4845142 C30.0859637,18.4845142 28.7932037,18.2394442 28.7932037,16.8439943 M29.7161537,22.256324 L29.7161537,22.256324 L39.7419733,22.263254 L43.2290231,9.84469457 L43.4230631,9.1403546 C43.8262631,7.64914467 44.1563831,5.37484477 41.2483032,5.00944478 L29.9473637,5.01448478 C28.9507037,5.01448478 28.0201938,5.61361476 27.6781038,6.8339247 L27.1659138,8.67289462 L38.3351833,8.66911462 C38.9513233,8.64076462 39.1491433,8.75920462 39.0086533,9.2732846 L38.4196033,11.4694645 L30.1735337,11.4915145 C30.1735337,11.4915145 24.8821639,11.3944945 24.8821639,16.8880943 C24.8821639,16.8880943 24.9672139,22.256324 29.7161537,22.256324" id="Fill-9" fill="#E30B1C"></path>
            <g id="Group-13" transform="translate(93.869996, 0.283374)">
                <mask id="mask-2" fill="white">
                    <use xlink:href="#path-1"></use>
                </mask>
                <g id="Clip-12"></g>
                <path d="M9.38529859,4.5930778 L10.5791485,0.353807985 L8.18892864,0.353807985 C6.9912987,0.323567986 5.60844876,1.15579795 5.26635877,2.3716979 L0.594278974,19.0629172 C0.257228989,20.2807071 0.968498958,21.5444871 2.1862889,21.882797 C3.40659885,22.222997 4.6703788,21.5110971 5.00868878,20.2933071 L8.26452864,8.32834764 L10.7536585,8.32834764 C11.8511185,8.32834764 12.8717184,7.97617765 13.2471984,6.63175771 L13.8129384,4.6044178 L9.38529859,4.5930778 Z" id="Fill-11" fill="#E30B1C" mask="url(#mask-2)"></path>
            </g>
            <path d="M64.9218752,12.5460085 L64.9785752,12.2568385 C65.4926551,10.2446186 67.3064251,8.94996861 69.202095,9.2523686 C70.3203449,9.43002859 71.2968449,10.0354586 71.8210049,10.8727285 C72.1593149,11.4113785 72.2689349,11.9430985 72.1593149,12.5604985 M75.4624047,8.59212863 C74.2351648,6.75063871 72.1977449,5.37597877 69.876195,5.00679878 C65.7534751,4.35537881 61.6717053,7.03098869 60.6196054,11.2393885 L57.4992155,22.263128 L71.9627549,22.248008 C72.9915448,22.248008 74.0455348,21.6224181 74.3970748,20.3598981 L74.9300547,18.5580982 L64.0461752,18.5681782 C63.4483052,18.5952682 63.3304952,18.2443582 63.4653152,17.7447682 L63.9724652,15.9946283 L75.0837747,15.9946283 C75.2091447,15.9946283 75.4183047,15.8616983 75.5153247,15.7445183 C76.3519647,14.7969984 76.7381547,10.5022885 75.4624047,8.59212863" id="Fill-14" fill="#E30B1C"></path>
            <path d="M82.9719414,12.5460085 L83.0280114,12.2568385 C83.5427214,10.2446186 85.3546013,8.94996861 87.2527912,9.2523686 C88.3672612,9.43002859 89.3469111,10.0354586 89.8698111,10.8727285 C90.2081211,11.4113785 90.3208911,11.9430985 90.2106411,12.5604985 M93.5112109,8.59212863 C92.281451,6.75063871 90.2471811,5.37597877 87.9231112,5.00679878 C83.8035414,4.35537881 79.7217715,7.03098869 78.6696716,11.2393885 L75.5461317,22.263128 L90.0121911,22.248008 C91.041611,22.248008 92.094341,21.6224181 92.447141,20.3598981 L92.978231,18.5580982 L82.0930914,18.5681782 C81.4958515,18.5952682 81.3774115,18.2443582 81.5147515,17.7447682 L82.0219014,15.9946283 L93.1357309,15.9946283 C93.2592109,15.9946283 93.4652209,15.8616983 93.5672809,15.7445183 C94.4014009,14.7969984 94.7844409,10.5022885 93.5112109,8.59212863" id="Fill-16" fill="#E30B1C"></path>
            <path d="M52.3209937,15.9611753 C52.3209937,15.9611753 52.1244337,18.4610152 49.8406838,18.4673152 L44.6576741,18.4704652 C43.5936041,18.4717252 42.6378941,18.6493852 42.2397342,20.1153951 C41.8396842,21.5807751 41.6916342,22.229675 41.6916342,22.229675 L49.5370238,22.239755 L49.5370238,22.245425 C54.2412336,22.245425 57.4548635,19.6649451 58.3280435,12.4218355 L48.9416739,12.4130155 C48.9416739,12.4130155 49.6353038,9.1760756 52.1326237,9.2031656 L57.3156335,9.2000156 C58.3822235,9.1974956 59.5508734,8.50449563 59.9496634,7.03596569 C60.3509734,5.57058576 60.4983934,4.92105579 60.4983934,4.92105579 L52.4369137,4.90971579 L52.4369137,4.90593579 C45.224044,4.79379579 45.224044,9.67944558 43.4379941,15.9510953 L52.3209937,15.9611753 Z" id="Fill-18" fill="#E30B1C"></path>
            <g id="Group-22" transform="translate(101.429996, 24.223373)">
                <mask id="mask-4" fill="white">
                    <use xlink:href="#path-3"></use>
                </mask>
                <g id="Clip-21"></g>
                <path d="M4.32778481,1.87500592 L4.84501479,0.0309959987 L3.80488483,0.0309959987 C3.28576486,0.0215459991 2.68537488,0.381905983 2.53543489,0.90921596 L0.504314978,8.16933564 C0.356264984,8.70042562 0.666224971,9.2478956 1.19479495,9.39657559 C1.72777492,9.54336558 2.2765049,9.2340356 2.42455489,8.70420562 L3.83953483,3.50103585 L4.92124479,3.50040585 C5.39815477,3.50040585 5.84356475,3.34794585 6.00736474,2.76267588 L6.25306473,1.88256592 L4.32778481,1.87500592 Z" id="Fill-20" fill="#E30B1C" mask="url(#mask-4)"></path>
            </g>
            <path d="M96.4744788,29.4354257 L96.5015688,29.3100557 C96.7245888,28.4337258 97.5114588,27.8717658 98.3373887,28.0034358 C98.8218587,28.0802958 99.2483687,28.3442658 99.4745387,28.7065158 C99.6238487,28.9415057 99.6723587,29.1733457 99.6238487,29.4423557 L96.4744788,29.4354257 Z M101.060249,27.7155258 C100.526009,26.9147958 99.6395987,26.3156659 98.6290787,26.1575359 C96.8373588,25.8734059 95.0632789,27.0357558 94.6058989,28.8665357 L93.2463589,33.6608355 L99.5369087,33.6564255 C99.9842086,33.6564255 100.444109,33.3836355 100.596569,32.8336456 L100.828409,32.0486656 L96.0952188,32.0543356 C95.8331388,32.0663056 95.7833688,31.9138456 95.8425888,31.6933456 L96.0624588,30.9341957 L100.897709,30.9341957 C100.950629,30.9341957 101.041349,30.8774957 101.083559,30.8258357 C101.447699,30.4138157 101.614649,28.5458658 101.060249,27.7155258 L101.060249,27.7155258 Z" id="Fill-23" fill="#E30B1C"></path>
            <path d="M93.2359009,29.5086317 L92.055281,33.6729315 L90.0361311,33.6729315 L91.219271,29.5086317 L91.228721,29.4254717 C91.278491,29.1552017 91.328261,28.9126517 91.180211,28.6795518 C90.952151,28.3147818 90.4387011,28.0930218 89.9517111,28.0167918 C89.1276711,27.8844918 88.3401712,28.4470818 88.1177812,29.3208917 L88.1108512,29.3561717 L86.8855012,33.6729315 L84.8619413,33.6729315 L86.2195912,28.8811517 C86.6776012,27.0503718 88.4535712,25.8855019 90.2459211,26.1696319 C91.254551,26.3283919 92.250581,26.7555318 92.799941,27.5442918 C93.5175109,28.5724518 93.2359009,29.5086317 93.2359009,29.5086317" id="Fill-25" fill="#E30B1C"></path>
        </g>
    </g>
</svg>