<svg xmlns="http://www.w3.org/2000/svg" xmlns:xlink="http://www.w3.org/1999/xlink" width="121.499" height="36" viewBox="0 0 121.499 36">
  <defs>
    <clipPath id="clip-path">
      <path id="Path_7976" data-name="Path 7976" d="M10.39,7.531A1.8,1.8,0,0,0,9.973,8.8V28.7a1.8,1.8,0,0,0,.417,1.264l.066.066,11.151-11.15v-.264L10.455,7.465Z" transform="translate(-9.973 -7.465)" fill="none"/>
    </clipPath>
    <linearGradient id="linear-gradient" x1="-0.112" y1="1.238" x2="-0.075" y2="1.238" gradientUnits="objectBoundingBox">
      <stop offset="0" stop-color="#00a0ff"/>
      <stop offset="0.007" stop-color="#00a1ff"/>
      <stop offset="0.26" stop-color="#00beff"/>
      <stop offset="0.512" stop-color="#00d2ff"/>
      <stop offset="0.76" stop-color="#00dfff"/>
      <stop offset="1" stop-color="#00e3ff"/>
    </linearGradient>
    <clipPath id="clip-path-2">
      <path id="Path_7977" data-name="Path 7977" d="M22.9,19.441V19.7l3.716,3.719.085-.048,4.4-2.5c1.258-.715,1.258-1.885,0-2.6l-4.4-2.5-.084-.048Z" transform="translate(-22.899 -15.724)" fill="none"/>
    </clipPath>
    <linearGradient id="linear-gradient-2" x1="-2.178" y1="2.838" x2="-2.083" y2="2.838" gradientUnits="objectBoundingBox">
      <stop offset="0" stop-color="#ffe000"/>
      <stop offset="0.409" stop-color="#ffbd00"/>
      <stop offset="0.775" stop-color="orange"/>
      <stop offset="1" stop-color="#ff9c00"/>
    </linearGradient>
    <clipPath id="clip-path-3">
      <path id="Path_7978" data-name="Path 7978" d="M10.436,31.217a1.463,1.463,0,0,0,1.87.056L25.453,23.8l-3.8-3.8Z" transform="translate(-10.436 -20.001)" fill="none"/>
    </clipPath>
    <linearGradient id="linear-gradient-3" x1="-0.394" y1="1.145" x2="-0.347" y2="1.145" gradientUnits="objectBoundingBox">
      <stop offset="0" stop-color="#ff3a44"/>
      <stop offset="1" stop-color="#c31162"/>
    </linearGradient>
    <clipPath id="clip-path-4">
      <path id="Path_7979" data-name="Path 7979" d="M10.436,7.5,21.653,18.715l3.8-3.8L12.306,7.443a2.067,2.067,0,0,0-1.009-.3,1.149,1.149,0,0,0-.861.358" transform="translate(-10.436 -7.14)" fill="none"/>
    </clipPath>
    <linearGradient id="linear-gradient-4" x1="-0.399" y1="1.77" x2="-0.351" y2="1.77" gradientUnits="objectBoundingBox">
      <stop offset="0" stop-color="#32a071"/>
      <stop offset="0.068" stop-color="#2da771"/>
      <stop offset="0.476" stop-color="#15cf74"/>
      <stop offset="0.801" stop-color="#06e775"/>
      <stop offset="1" stop-color="#00f076"/>
    </linearGradient>
    <clipPath id="clip-path-5">
      <rect id="Rectangle_1955" data-name="Rectangle 1955" width="121" height="36" transform="translate(0 0)" fill="none"/>
    </clipPath>
    <clipPath id="clip-path-6">
      <rect id="Rectangle_1951" data-name="Rectangle 1951" width="15.018" height="7.856" fill="none"/>
    </clipPath>
    <clipPath id="clip-path-7">
      <rect id="Rectangle_1952" data-name="Rectangle 1952" width="0.484" height="1.396" fill="none"/>
    </clipPath>
    <clipPath id="clip-path-8">
      <rect id="Rectangle_1953" data-name="Rectangle 1953" width="5.431" height="3.801" fill="none"/>
    </clipPath>
    <clipPath id="clip-path-9">
      <rect id="Rectangle_1954" data-name="Rectangle 1954" width="20.781" height="11.574" fill="none"/>
    </clipPath>
  </defs>
  <g id="Group_250" data-name="Group 250" transform="translate(-659 -3846)">
    <g id="Group_225" data-name="Group 225" transform="translate(659 3846)">
      <g id="Group_258" data-name="Group 258">
        <g id="Group_226" data-name="Group 226" transform="translate(0 0)">
          <g id="Group_257" data-name="Group 257">
            <path id="Path_7961" data-name="Path 7961" d="M116.519,36H4.481A4.5,4.5,0,0,1,0,31.5V4.5A4.5,4.5,0,0,1,4.481,0H116.519A4.5,4.5,0,0,1,121,4.5v27a4.5,4.5,0,0,1-4.481,4.5" transform="translate(0 0)" fill="#282b2f"/>
            <path id="Path_7962" data-name="Path 7962" d="M117,.72a3.784,3.784,0,0,1,3.78,3.78v27A3.784,3.784,0,0,1,117,35.28H4.5A3.784,3.784,0,0,1,.72,31.5V4.5A3.784,3.784,0,0,1,4.5.72ZM117,0H4.5A4.513,4.513,0,0,0,0,4.5v27A4.513,4.513,0,0,0,4.5,36H117a4.513,4.513,0,0,0,4.5-4.5V4.5A4.513,4.513,0,0,0,117,0" transform="translate(0 0)" fill="#a6a6a6"/>
            <path id="Path_7963" data-name="Path 7963" d="M46.811,9.905a2.438,2.438,0,0,1-.67,1.8,2.618,2.618,0,0,1-1.984.8,2.782,2.782,0,0,1-2.805-2.821,2.782,2.782,0,0,1,2.805-2.821,2.776,2.776,0,0,1,1.108.227,2.233,2.233,0,0,1,.845.6l-.475.475a1.824,1.824,0,0,0-1.478-.641,2.087,2.087,0,0,0-2.1,2.157,2.123,2.123,0,0,0,3.605,1.553,1.693,1.693,0,0,0,.452-1.093h-1.96V9.5h2.616a2.315,2.315,0,0,1,.038.408" transform="translate(-4.135 -0.687)" fill="#fff"/>
            <path id="Path_7964" data-name="Path 7964" d="M46.811,9.905a2.438,2.438,0,0,1-.67,1.8,2.618,2.618,0,0,1-1.984.8,2.782,2.782,0,0,1-2.805-2.821,2.782,2.782,0,0,1,2.805-2.821,2.776,2.776,0,0,1,1.108.227,2.233,2.233,0,0,1,.845.6l-.475.475a1.824,1.824,0,0,0-1.478-.641,2.087,2.087,0,0,0-2.1,2.157,2.123,2.123,0,0,0,3.605,1.553,1.693,1.693,0,0,0,.452-1.093h-1.96V9.5h2.616A2.315,2.315,0,0,1,46.811,9.905Z" transform="translate(-4.135 -0.687)" fill="none" stroke="#fff" stroke-width="0.2"/>
            <path id="Path_7965" data-name="Path 7965" d="M51.677,7.664H49.219V9.375h2.218v.649H49.219v1.712h2.459V12.4H48.525V7h3.153Z" transform="translate(-4.853 -0.7)" fill="#fff"/>
            <path id="Path_7966" data-name="Path 7966" d="M51.677,7.664H49.219V9.375h2.218v.649H49.219v1.712h2.459V12.4H48.525V7h3.153Z" transform="translate(-4.853 -0.7)" fill="none" stroke="#fff" stroke-width="0.2"/>
            <path id="Path_7967" data-name="Path 7967" d="M55.034,12.4H54.34V7.663H52.832V7h3.711v.663H55.034Z" transform="translate(-5.283 -0.7)" fill="#fff"/>
            <path id="Path_7968" data-name="Path 7968" d="M55.034,12.4H54.34V7.663H52.832V7h3.711v.663H55.034Z" transform="translate(-5.283 -0.7)" fill="none" stroke="#fff" stroke-width="0.2"/>
            <rect id="Rectangle_1944" data-name="Rectangle 1944" width="0.694" height="5.4" transform="translate(53.944 6.3)" fill="#fff"/>
            <rect id="Rectangle_1945" data-name="Rectangle 1945" width="0.694" height="5.4" transform="translate(53.944 6.3)" fill="none" stroke="#fff" stroke-width="0.2"/>
            <path id="Path_7969" data-name="Path 7969" d="M63.884,12.4h-.695V7.663H61.681V7h3.711v.663H63.884Z" transform="translate(-6.168 -0.7)" fill="#fff"/>
            <path id="Path_7970" data-name="Path 7970" d="M63.884,12.4h-.695V7.663H61.681V7h3.711v.663H63.884Z" transform="translate(-6.168 -0.7)" fill="none" stroke="#fff" stroke-width="0.2"/>
            <path id="Path_7971" data-name="Path 7971" d="M73.081,11.688a2.8,2.8,0,0,1-3.959,0,2.758,2.758,0,0,1-.8-2,2.761,2.761,0,0,1,.8-2,2.8,2.8,0,0,1,3.955,0,2.761,2.761,0,0,1,.8,2,2.761,2.761,0,0,1-.8,2m-3.447-.452a2.077,2.077,0,0,0,2.934,0,2.115,2.115,0,0,0,.6-1.55,2.113,2.113,0,0,0-.6-1.55,2.075,2.075,0,0,0-2.934,0,2.116,2.116,0,0,0-.6,1.55,2.118,2.118,0,0,0,.6,1.55" transform="translate(-6.833 -0.687)" fill="#fff"/>
            <path id="Path_7972" data-name="Path 7972" d="M73.081,11.688a2.8,2.8,0,0,1-3.959,0,2.758,2.758,0,0,1-.8-2,2.761,2.761,0,0,1,.8-2,2.8,2.8,0,0,1,3.955,0,2.761,2.761,0,0,1,.8,2A2.761,2.761,0,0,1,73.081,11.688Zm-3.447-.452a2.077,2.077,0,0,0,2.934,0,2.115,2.115,0,0,0,.6-1.55,2.113,2.113,0,0,0-.6-1.55,2.075,2.075,0,0,0-2.934,0,2.116,2.116,0,0,0-.6,1.55A2.118,2.118,0,0,0,69.634,11.236Z" transform="translate(-6.833 -0.687)" fill="none" stroke="#fff" stroke-width="0.2"/>
            <path id="Path_7973" data-name="Path 7973" d="M75.575,12.4V7h.845l2.624,4.2h.03l-.03-1.041V7h.694v5.4h-.724L76.268,8h-.03l.03,1.041V12.4Z" transform="translate(-7.558 -0.7)" fill="#fff"/>
            <path id="Path_7974" data-name="Path 7974" d="M75.575,12.4V7h.845l2.624,4.2h.03l-.03-1.041V7h.694v5.4h-.724L76.268,8h-.03l.03,1.041V12.4Z" transform="translate(-7.558 -0.7)" fill="none" stroke="#fff" stroke-width="0.2"/>
            <path id="Path_7975" data-name="Path 7975" d="M65.426,21.281a3.828,3.828,0,1,0,3.842,3.829,3.773,3.773,0,0,0-3.842-3.829m0,6.148a2.326,2.326,0,1,1,2.16-2.319,2.214,2.214,0,0,1-2.16,2.319m-8.383-6.148a3.828,3.828,0,1,0,3.843,3.829,3.773,3.773,0,0,0-3.843-3.829m0,6.148A2.326,2.326,0,1,1,59.2,25.109a2.214,2.214,0,0,1-2.161,2.319m-9.97-4.972V24.08h3.885a3.389,3.389,0,0,1-.884,2.044,3.978,3.978,0,0,1-3,1.189,4.321,4.321,0,0,1,0-8.641A4.139,4.139,0,0,1,50,19.831l1.146-1.145a5.666,5.666,0,0,0-4.074-1.639,5.946,5.946,0,1,0,0,11.89,5.436,5.436,0,0,0,4.146-1.668,5.366,5.366,0,0,0,1.407-3.8,5.246,5.246,0,0,0-.087-1.014Zm40.777,1.261a3.558,3.558,0,0,0-3.277-2.436,3.638,3.638,0,0,0-3.61,3.829,3.746,3.746,0,0,0,3.8,3.828,3.809,3.809,0,0,0,3.19-1.7l-1.305-.87a2.187,2.187,0,0,1-1.885,1.058,1.948,1.948,0,0,1-1.856-1.159l5.118-2.118Zm-5.22,1.276a2.1,2.1,0,0,1,2-2.233,1.481,1.481,0,0,1,1.421.812ZM78.469,28.7h1.682V17.453H78.469Zm-2.755-6.568h-.058a2.653,2.653,0,0,0-2.015-.856,3.832,3.832,0,0,0,0,7.656,2.608,2.608,0,0,0,2.015-.87h.058v.551c0,1.465-.782,2.247-2.044,2.247A2.118,2.118,0,0,1,71.742,29.5l-1.464.609a3.647,3.647,0,0,0,3.393,2.262c1.972,0,3.64-1.16,3.64-3.987V21.513h-1.6Zm-1.928,5.292a2.328,2.328,0,0,1,0-4.639,2.157,2.157,0,0,1,2.044,2.335,2.138,2.138,0,0,1-2.044,2.3m21.943-9.975H91.705V28.7h1.678V24.442h2.345a3.5,3.5,0,1,0,0-6.988m.043,5.422H93.384V19.019h2.389a1.929,1.929,0,1,1,0,3.857m10.379-1.615a3.155,3.155,0,0,0-3,1.722l1.491.623a1.591,1.591,0,0,1,1.535-.825,1.617,1.617,0,0,1,1.766,1.447v.116a3.718,3.718,0,0,0-1.751-.434c-1.606,0-3.243.883-3.243,2.533a2.6,2.6,0,0,0,2.794,2.475,2.369,2.369,0,0,0,2.143-1.1h.058v.868h1.621V24.372c0-2-1.49-3.111-3.415-3.111m-.2,6.166c-.551,0-1.318-.275-1.318-.956,0-.868.955-1.2,1.78-1.2a3,3,0,0,1,1.534.376,2.036,2.036,0,0,1-2,1.78m9.524-5.92-1.925,4.878h-.058l-2-4.878h-1.809l3,6.817-1.708,3.793h1.751l4.618-10.61Zm-15.126,7.2h1.679V17.454h-1.679Z" transform="translate(-4.104 -1.705)" fill="#fff"/>
          </g>
        </g>
        <g id="Group_228" data-name="Group 228" transform="translate(8.976 6.718)">
          <g id="Group_227" data-name="Group 227" clip-path="url(#clip-path)">
            <rect id="Rectangle_1947" data-name="Rectangle 1947" width="24.181" height="24.181" transform="translate(-11.282 11.282) rotate(-45)" fill="url(#linear-gradient)"/>
          </g>
        </g>
        <g id="Group_230" data-name="Group 230" transform="translate(20.609 14.152)">
          <g id="Group_229" data-name="Group 229" clip-path="url(#clip-path-2)">
            <rect id="Rectangle_1948" data-name="Rectangle 1948" width="9.463" height="7.699" transform="translate(0 0)" fill="url(#linear-gradient-2)"/>
          </g>
        </g>
        <g id="Group_232" data-name="Group 232" transform="translate(9.392 18.001)">
          <g id="Group_231" data-name="Group 231" clip-path="url(#clip-path-3)">
            <rect id="Rectangle_1949" data-name="Rectangle 1949" width="18.899" height="18.899" transform="translate(-5.855 5.855) rotate(-45)" fill="url(#linear-gradient-3)"/>
          </g>
        </g>
        <g id="Group_234" data-name="Group 234" transform="translate(9.392 6.426)">
          <g id="Group_233" data-name="Group 233" clip-path="url(#clip-path-4)">
            <rect id="Rectangle_1950" data-name="Rectangle 1950" width="18.803" height="18.803" transform="translate(-5.787 5.788) rotate(-45)" fill="url(#linear-gradient-4)"/>
          </g>
        </g>
        <g id="Group_248" data-name="Group 248" transform="translate(0 0)">
          <g id="Group_247" data-name="Group 247" clip-path="url(#clip-path-5)">
            <g id="Group_237" data-name="Group 237" transform="translate(9.392 21.719)" opacity="0.2" style="mix-blend-mode: normal;isolation: isolate">
              <g id="Group_236" data-name="Group 236">
                <g id="Group_235" data-name="Group 235" clip-path="url(#clip-path-6)">
                  <path id="Path_7980" data-name="Path 7980" d="M25.37,24.132,12.306,31.554a1.5,1.5,0,0,1-1.8.01l-.067.067.067.066h0a1.5,1.5,0,0,0,1.8-.01l13.147-7.47Z" transform="translate(-10.435 -24.132)"/>
                </g>
              </g>
            </g>
            <g id="Group_240" data-name="Group 240" transform="translate(8.975 27.822)" opacity="0.12" style="mix-blend-mode: normal;isolation: isolate">
              <g id="Group_239" data-name="Group 239">
                <g id="Group_238" data-name="Group 238" clip-path="url(#clip-path-7)">
                  <path id="Path_7981" data-name="Path 7981" d="M10.389,32.177a1.8,1.8,0,0,1-.417-1.264v.131a1.8,1.8,0,0,0,.417,1.264l.067-.067Z" transform="translate(-9.972 -30.913)"/>
                </g>
              </g>
            </g>
            <g id="Group_243" data-name="Group 243" transform="translate(24.326 18.001)" opacity="0.12" style="mix-blend-mode: normal;isolation: isolate">
              <g id="Group_242" data-name="Group 242">
                <g id="Group_241" data-name="Group 241" clip-path="url(#clip-path-8)">
                  <path id="Path_7982" data-name="Path 7982" d="M31.516,21.169l-4.487,2.55.084.084,4.4-2.5A1.578,1.578,0,0,0,32.46,20a1.675,1.675,0,0,1-.943,1.167" transform="translate(-27.029 -20.002)"/>
                </g>
              </g>
            </g>
            <g id="Group_246" data-name="Group 246" transform="translate(8.975 6.426)" opacity="0.25" style="mix-blend-mode: normal;isolation: isolate">
              <g id="Group_245" data-name="Group 245">
                <g id="Group_244" data-name="Group 244" clip-path="url(#clip-path-9)">
                  <path id="Path_7983" data-name="Path 7983" d="M12.259,7.575,29.81,17.547a1.672,1.672,0,0,1,.943,1.168,1.577,1.577,0,0,0-.943-1.3L12.259,7.443C11,6.729,9.972,7.322,9.972,8.763v.131c0-1.44,1.029-2.034,2.287-1.319" transform="translate(-9.972 -7.141)" fill="#fff"/>
                </g>
              </g>
            </g>
          </g>
        </g>
      </g>
    </g>
  </g>
</svg>
