<svg xmlns="http://www.w3.org/2000/svg" width="128.136" height="37.433" viewBox="0 0 128.136 37.433">
  <g id="New-Design" transform="translate(0 -0.63)">
    <g id="Waseet-Logo-En-White" transform="translate(0 0.63)">
      <path id="Fill-1" d="M8.817,23.933A2.676,2.676,0,0,1,3.662,22.5L9.12,2.995A3.575,3.575,0,0,1,12.529.637H15.32Z" transform="translate(0.599 -0.629)" fill="#fefefe" fill-rule="evenodd"/>
      <path id="Fill-3" d="M15.635,23.933A2.675,2.675,0,1,1,10.482,22.5l5.458-19.5A3.569,3.569,0,0,1,19.347.637h2.795Z" transform="translate(1.746 -0.629)" fill="#fefefe" fill-rule="evenodd"/>
      <path id="Fill-5" d="M22.454,23.933A2.678,2.678,0,0,1,17.3,22.5l5.458-19.5A3.579,3.579,0,0,1,26.165.637h2.794Z" transform="translate(3.305 -0.629)" fill="#fefefe" fill-rule="evenodd"/>
      <path id="Fill-7" d="M5.255,10.342A2.676,2.676,0,1,1,.1,8.9L1.766,3.147a3.432,3.432,0,0,1,3.5-2.51L8.1.63Z" transform="translate(0 -0.63)" fill="#fefefe" fill-rule="evenodd"/>
      <path id="Fill-9" d="M29.451,18.835A1.815,1.815,0,0,1,31.009,17v.006h8.419l-1.056,3.8-7.411-.06a1.913,1.913,0,0,1-1.51-1.917m1.078,6.323h0l11.713.008,4.074-14.508.227-.823c.471-1.742.857-4.4-2.541-4.826l-13.2.006a2.71,2.71,0,0,0-2.651,2.126l-.6,2.148,13.048,0c.72-.033.951.105.787.706L40.7,12.556l-9.633.026s-6.182-.113-6.182,6.3c0,0,.1,6.271,5.647,6.271" transform="translate(4.84 0.106)" fill="#fefefe" fill-rule="evenodd"/>
      <g id="Group-13" transform="translate(112.595 0.007)">
        <path id="Fill-11" d="M10.878,5.306,12.273.354H9.481A3.581,3.581,0,0,0,6.066,2.711L.608,22.211a2.677,2.677,0,0,0,5.157,1.437L9.569,9.67h2.908A2.664,2.664,0,0,0,15.39,7.688l.661-2.368Z" transform="translate(-0.511 -0.353)" fill="#fefefe" fill-rule="evenodd"/>
      </g>
      <path id="Fill-14" d="M66.171,13.831l.066-.338a4.479,4.479,0,0,1,4.934-3.51,4.414,4.414,0,0,1,3.06,1.893,2.637,2.637,0,0,1,.4,1.972m3.859-4.636A9.593,9.593,0,0,0,61.145,12.3L57.5,25.183l16.9-.018a2.919,2.919,0,0,0,2.844-2.206l.623-2.1-12.715.012c-.7.032-.836-.378-.679-.962l.592-2.045H78.042a.861.861,0,0,0,.5-.292c.977-1.107,1.429-6.124-.062-8.356" transform="translate(11.185 0.09)" fill="#fefefe" fill-rule="evenodd"/>
      <path id="Fill-16" d="M84.221,13.831l.066-.338a4.479,4.479,0,0,1,4.936-3.51,4.415,4.415,0,0,1,3.057,1.893,2.636,2.636,0,0,1,.4,1.972m3.856-4.636A9.592,9.592,0,0,0,79.2,12.3L75.546,25.183l16.9-.018a2.92,2.92,0,0,0,2.845-2.206l.62-2.1-12.716.012c-.7.032-.836-.378-.676-.962l.592-2.045H96.1a.886.886,0,0,0,.5-.292c.974-1.107,1.422-6.124-.066-8.356" transform="translate(15.046 0.09)" fill="#fefefe" fill-rule="evenodd"/>
      <path id="Fill-18" d="M54.109,17.821s-.23,2.92-2.9,2.928l-6.055,0c-1.243,0-2.36.209-2.825,1.922s-.64,2.47-.64,2.47l9.165.012v.007c5.5,0,9.25-3.015,10.27-11.476l-10.966-.01s.81-3.782,3.728-3.75l6.055,0a3.229,3.229,0,0,0,3.077-2.528c.469-1.712.641-2.471.641-2.471l-9.418-.013v0c-8.426-.131-8.426,5.577-10.513,12.9Z" transform="translate(8.11 0.089)" fill="#fefefe" fill-rule="evenodd"/>
      <g id="Group-22" transform="translate(121.377 26.43)">
        <path id="Fill-20" d="M4.977,2.185l.6-2.154H4.366A1.567,1.567,0,0,0,2.883,1.057L.511,9.539a1.164,1.164,0,1,0,2.243.625L4.407,4.085H5.671a1.16,1.16,0,0,0,1.269-.862l.287-1.028Z" transform="translate(-0.467 -0.031)" fill="#fefefe" fill-rule="evenodd"/>
      </g>
      <path id="Fill-23" d="M97.018,29.994l.032-.146a1.944,1.944,0,0,1,2.145-1.526,1.919,1.919,0,0,1,1.328.821,1.138,1.138,0,0,1,.174.86Zm5.357-2.009a4.173,4.173,0,0,0-7.54,1.345l-1.588,5.6,7.349-.005a1.271,1.271,0,0,0,1.238-.961l.271-.917-5.529.007c-.306.014-.364-.164-.3-.422l.257-.887h5.649a.37.37,0,0,0,.217-.127,4.277,4.277,0,0,0-.027-3.634Z" transform="translate(18.024 2.489)" fill="#fefefe" fill-rule="evenodd"/>
      <path id="Fill-25" d="M94.645,30.078l-1.379,4.865H90.907l1.382-4.865.011-.1a1.132,1.132,0,0,0-.057-.871,2.091,2.091,0,0,0-1.435-.774,1.942,1.942,0,0,0-2.142,1.524l-.008.041-1.432,5.043H84.862l1.586-5.6a4.218,4.218,0,0,1,4.7-3.168,4.407,4.407,0,0,1,2.984,1.606,2.834,2.834,0,0,1,.509,2.295" transform="translate(16.613 2.491)" fill="#fefefe" fill-rule="evenodd"/>
    </g>
  </g>
</svg>
